<svg width="1956" height="1657" viewBox="0 0 1956 1657" fill="none" xmlns="http://www.w3.org/2000/svg">
<g opacity="0.6">
<path d="M1 33H1955.5" stroke="#C3E7E7" stroke-width="0.5" stroke-linecap="round"/>
<path d="M1 63H1955.5" stroke="#C3E7E7" stroke-width="0.5" stroke-linecap="round"/>
<path d="M1 93H1955.5" stroke="#C3E7E7" stroke-width="0.5" stroke-linecap="round"/>
<path d="M1 123H1955.5" stroke="#C3E7E7" stroke-width="0.5" stroke-linecap="round"/>
<path d="M1 153H1955.5" stroke="#C3E7E7" stroke-width="0.5" stroke-linecap="round"/>
<path d="M1 183H1955.5" stroke="#C3E7E7" stroke-width="0.5" stroke-linecap="round"/>
<path d="M1 213H1955.5" stroke="#C3E7E7" stroke-width="0.5" stroke-linecap="round"/>
<path d="M1 243H1955.5" stroke="#C3E7E7" stroke-width="0.5" stroke-linecap="round"/>
<path d="M1 273H1955.5" stroke="#C3E7E7" stroke-width="0.5" stroke-linecap="round"/>
<path d="M1 303H1955.5" stroke="#C3E7E7" stroke-width="0.5" stroke-linecap="round"/>
<path d="M1 333H1955.5" stroke="#C3E7E7" stroke-width="0.5" stroke-linecap="round"/>
<path d="M1 363H1955.5" stroke="#C3E7E7" stroke-width="0.5" stroke-linecap="round"/>
<path d="M1 393H1955.5" stroke="#C3E7E7" stroke-width="0.5" stroke-linecap="round"/>
<path d="M1 423H1955.5" stroke="#C3E7E7" stroke-width="0.5" stroke-linecap="round"/>
<path d="M1 453H1955.5" stroke="#C3E7E7" stroke-width="0.5" stroke-linecap="round"/>
<path d="M1 483H1955.5" stroke="#C3E7E7" stroke-width="0.5" stroke-linecap="round"/>
<path d="M1 513H1955.5" stroke="#C3E7E7" stroke-width="0.5" stroke-linecap="round"/>
<path d="M1 543H1955.5" stroke="#C3E7E7" stroke-width="0.5" stroke-linecap="round"/>
<path d="M1 573H1955.5" stroke="#C3E7E7" stroke-width="0.5" stroke-linecap="round"/>
<path d="M1 603H1955.5" stroke="#C3E7E7" stroke-width="0.5" stroke-linecap="round"/>
<path d="M1 633H1955.5" stroke="#C3E7E7" stroke-width="0.5" stroke-linecap="round"/>
<path d="M1 663H1955.5" stroke="#C3E7E7" stroke-width="0.5" stroke-linecap="round"/>
<path d="M1 693H1955.5" stroke="#C3E7E7" stroke-width="0.5" stroke-linecap="round"/>
<path d="M1 723H1955.5" stroke="#C3E7E7" stroke-width="0.5" stroke-linecap="round"/>
<path d="M1 753H1955.5" stroke="#C3E7E7" stroke-width="0.5" stroke-linecap="round"/>
<path d="M1 783H1955.5" stroke="#C3E7E7" stroke-width="0.5" stroke-linecap="round"/>
<path d="M1 813H1955.5" stroke="#C3E7E7" stroke-width="0.5" stroke-linecap="round"/>
<path d="M1 843H1955.5" stroke="#C3E7E7" stroke-width="0.5" stroke-linecap="round"/>
<path d="M1 873H1955.5" stroke="#C3E7E7" stroke-width="0.5" stroke-linecap="round"/>
<path d="M1 903H1955.5" stroke="#C3E7E7" stroke-width="0.5" stroke-linecap="round"/>
<path d="M1 933H1955.5" stroke="#C3E7E7" stroke-width="0.5" stroke-linecap="round"/>
<path d="M1 963H1955.5" stroke="#C3E7E7" stroke-width="0.5" stroke-linecap="round"/>
<path d="M1 993H1955.5" stroke="#C3E7E7" stroke-width="0.5" stroke-linecap="round"/>
<path d="M1 1023H1955.5" stroke="#C3E7E7" stroke-width="0.5" stroke-linecap="round"/>
<path d="M1 1053H1955.5" stroke="#C3E7E7" stroke-width="0.5" stroke-linecap="round"/>
<path d="M1 1083H1955.5" stroke="#C3E7E7" stroke-width="0.5" stroke-linecap="round"/>
<path d="M1 1113H1955.5" stroke="#C3E7E7" stroke-width="0.5" stroke-linecap="round"/>
<path d="M1 1143H1955.5" stroke="#C3E7E7" stroke-width="0.5" stroke-linecap="round"/>
<path d="M1 1173H1955.5" stroke="#C3E7E7" stroke-width="0.5" stroke-linecap="round"/>
<path d="M1 1203H1955.5" stroke="#C3E7E7" stroke-width="0.5" stroke-linecap="round"/>
<path d="M1 1233H1955.5" stroke="#C3E7E7" stroke-width="0.5" stroke-linecap="round"/>
<path d="M1 1263H1955.5" stroke="#C3E7E7" stroke-width="0.5" stroke-linecap="round"/>
<path d="M1 1293H1955.5" stroke="#C3E7E7" stroke-width="0.5" stroke-linecap="round"/>
<path d="M1 1323H1955.5" stroke="#C3E7E7" stroke-width="0.5" stroke-linecap="round"/>
<path d="M1 1353H1955.5" stroke="#C3E7E7" stroke-width="0.5" stroke-linecap="round"/>
<path d="M1 1383H1955.5" stroke="#C3E7E7" stroke-width="0.5" stroke-linecap="round"/>
<path d="M1 1413H1955.5" stroke="#C3E7E7" stroke-width="0.5" stroke-linecap="round"/>
<path d="M1 1443H1955.5" stroke="#C3E7E7" stroke-width="0.5" stroke-linecap="round"/>
<path d="M1 1473H1955.5" stroke="#C3E7E7" stroke-width="0.5" stroke-linecap="round"/>
<path d="M1 1503H1955.5" stroke="#C3E7E7" stroke-width="0.5" stroke-linecap="round"/>
<path d="M1 1533H1955.5" stroke="#C3E7E7" stroke-width="0.5" stroke-linecap="round"/>
<path d="M1 1563H1955.5" stroke="#C3E7E7" stroke-width="0.5" stroke-linecap="round"/>
<path d="M1 1593H1955.5" stroke="#C3E7E7" stroke-width="0.5" stroke-linecap="round"/>
<path d="M1 1623H1955.5" stroke="#C3E7E7" stroke-width="0.5" stroke-linecap="round"/>
<path d="M33 1V1656" stroke="#C3E7E7" stroke-width="0.5" stroke-linecap="round"/>
<path d="M63 1V1656" stroke="#C3E7E7" stroke-width="0.5" stroke-linecap="round"/>
<path d="M93 1V1656" stroke="#C3E7E7" stroke-width="0.5" stroke-linecap="round"/>
<path d="M123 1V1656" stroke="#C3E7E7" stroke-width="0.5" stroke-linecap="round"/>
<path d="M153 1V1656" stroke="#C3E7E7" stroke-width="0.5" stroke-linecap="round"/>
<path d="M183 1V1656" stroke="#C3E7E7" stroke-width="0.5" stroke-linecap="round"/>
<path d="M213 1V1656" stroke="#C3E7E7" stroke-width="0.5" stroke-linecap="round"/>
<path d="M243 1V1656" stroke="#C3E7E7" stroke-width="0.5" stroke-linecap="round"/>
<path d="M273 1V1656" stroke="#C3E7E7" stroke-width="0.5" stroke-linecap="round"/>
<path d="M303 1V1656" stroke="#C3E7E7" stroke-width="0.5" stroke-linecap="round"/>
<path d="M333 1V1656" stroke="#C3E7E7" stroke-width="0.5" stroke-linecap="round"/>
<path d="M363 1V1656" stroke="#C3E7E7" stroke-width="0.5" stroke-linecap="round"/>
<path d="M393 1V1656" stroke="#C3E7E7" stroke-width="0.5" stroke-linecap="round"/>
<path d="M423 1V1656" stroke="#C3E7E7" stroke-width="0.5" stroke-linecap="round"/>
<path d="M453 1V1656" stroke="#C3E7E7" stroke-width="0.5" stroke-linecap="round"/>
<path d="M483 1V1656" stroke="#C3E7E7" stroke-width="0.5" stroke-linecap="round"/>
<path d="M513 1V1656" stroke="#C3E7E7" stroke-width="0.5" stroke-linecap="round"/>
<path d="M543 1V1656" stroke="#C3E7E7" stroke-width="0.5" stroke-linecap="round"/>
<path d="M573 1V1656" stroke="#C3E7E7" stroke-width="0.5" stroke-linecap="round"/>
<path d="M603 1V1656" stroke="#C3E7E7" stroke-width="0.5" stroke-linecap="round"/>
<path d="M633 1V1656" stroke="#C3E7E7" stroke-width="0.5" stroke-linecap="round"/>
<path d="M663 1V1656" stroke="#C3E7E7" stroke-width="0.5" stroke-linecap="round"/>
<path d="M693 1V1656" stroke="#C3E7E7" stroke-width="0.5" stroke-linecap="round"/>
<path d="M723 1V1656" stroke="#C3E7E7" stroke-width="0.5" stroke-linecap="round"/>
<path d="M753 1V1656" stroke="#C3E7E7" stroke-width="0.5" stroke-linecap="round"/>
<path d="M783 1V1656" stroke="#C3E7E7" stroke-width="0.5" stroke-linecap="round"/>
<path d="M813 1V1656" stroke="#C3E7E7" stroke-width="0.5" stroke-linecap="round"/>
<path d="M843 1V1656" stroke="#C3E7E7" stroke-width="0.5" stroke-linecap="round"/>
<path d="M873 1V1656" stroke="#C3E7E7" stroke-width="0.5" stroke-linecap="round"/>
<path d="M903 1V1656" stroke="#C3E7E7" stroke-width="0.5" stroke-linecap="round"/>
<path d="M933 1V1656" stroke="#C3E7E7" stroke-width="0.5" stroke-linecap="round"/>
<path d="M963 1V1656" stroke="#C3E7E7" stroke-width="0.5" stroke-linecap="round"/>
<path d="M993 1V1656" stroke="#C3E7E7" stroke-width="0.5" stroke-linecap="round"/>
<path d="M1023 1V1656" stroke="#C3E7E7" stroke-width="0.5" stroke-linecap="round"/>
<path d="M1053 1V1656" stroke="#C3E7E7" stroke-width="0.5" stroke-linecap="round"/>
<path d="M1083 1V1656" stroke="#C3E7E7" stroke-width="0.5" stroke-linecap="round"/>
<path d="M1113 1V1656" stroke="#C3E7E7" stroke-width="0.5" stroke-linecap="round"/>
<path d="M1143 1V1656" stroke="#C3E7E7" stroke-width="0.5" stroke-linecap="round"/>
<path d="M1173 1V1656" stroke="#C3E7E7" stroke-width="0.5" stroke-linecap="round"/>
<path d="M1203 1V1656" stroke="#C3E7E7" stroke-width="0.5" stroke-linecap="round"/>
<path d="M1233 1V1656" stroke="#C3E7E7" stroke-width="0.5" stroke-linecap="round"/>
<path d="M1263 1V1656" stroke="#C3E7E7" stroke-width="0.5" stroke-linecap="round"/>
<path d="M1293 1V1656" stroke="#C3E7E7" stroke-width="0.5" stroke-linecap="round"/>
<path d="M1323 1V1656" stroke="#C3E7E7" stroke-width="0.5" stroke-linecap="round"/>
<path d="M1353 1V1656" stroke="#C3E7E7" stroke-width="0.5" stroke-linecap="round"/>
<path d="M1383 1V1656" stroke="#C3E7E7" stroke-width="0.5" stroke-linecap="round"/>
<path d="M1413 1V1656" stroke="#C3E7E7" stroke-width="0.5" stroke-linecap="round"/>
<path d="M1443 1V1656" stroke="#C3E7E7" stroke-width="0.5" stroke-linecap="round"/>
<path d="M1473 1V1656" stroke="#C3E7E7" stroke-width="0.5" stroke-linecap="round"/>
<path d="M1503 1V1656" stroke="#C3E7E7" stroke-width="0.5" stroke-linecap="round"/>
<path d="M1533 1V1656" stroke="#C3E7E7" stroke-width="0.5" stroke-linecap="round"/>
<path d="M1563 1V1656" stroke="#C3E7E7" stroke-width="0.5" stroke-linecap="round"/>
<path d="M1593 1V1656" stroke="#C3E7E7" stroke-width="0.5" stroke-linecap="round"/>
<path d="M1623 1V1656" stroke="#C3E7E7" stroke-width="0.5" stroke-linecap="round"/>
<path d="M1653 1V1656" stroke="#C3E7E7" stroke-width="0.5" stroke-linecap="round"/>
<path d="M1683 1V1656" stroke="#C3E7E7" stroke-width="0.5" stroke-linecap="round"/>
<path d="M1713 1V1656" stroke="#C3E7E7" stroke-width="0.5" stroke-linecap="round"/>
<path d="M1743 1V1656" stroke="#C3E7E7" stroke-width="0.5" stroke-linecap="round"/>
<path d="M1773 1V1656" stroke="#C3E7E7" stroke-width="0.5" stroke-linecap="round"/>
<path d="M1803 1V1656" stroke="#C3E7E7" stroke-width="0.5" stroke-linecap="round"/>
<path d="M1833 1V1656" stroke="#C3E7E7" stroke-width="0.5" stroke-linecap="round"/>
<path d="M1863 1V1656" stroke="#C3E7E7" stroke-width="0.5" stroke-linecap="round"/>
<path d="M1893 1V1656" stroke="#C3E7E7" stroke-width="0.5" stroke-linecap="round"/>
<path d="M1923 1V1656" stroke="#C3E7E7" stroke-width="0.5" stroke-linecap="round"/>
</g>
</svg>
