<svg width="944" height="484" viewBox="0 0 944 484" fill="none" xmlns="http://www.w3.org/2000/svg">
<path fill-rule="evenodd" clip-rule="evenodd" d="M58.7311 454.087C42.0765 454.257 21.5829 442.282 12.9531 427.334C8.73558 420.029 8.14249 413.369 10.5751 408.446L10.5638 408.439L10.6365 408.323C10.9085 407.786 11.2186 407.268 11.5644 406.775L16.4947 398.587L20.4755 400.885C22.7626 400.276 25.1194 399.967 27.4865 399.966C44.1382 399.792 64.6352 411.772 73.2616 426.715C74.422 428.697 75.3599 430.801 76.0582 432.988L81.4101 436.078L75.472 446.122L75.3969 446.079C72.734 450.947 66.9813 454.004 58.7311 454.087Z" fill="#A36EFE" stroke="black" stroke-linecap="round" stroke-linejoin="round"/>
<path fill-rule="evenodd" clip-rule="evenodd" d="M78.8977 417.71C70.2713 402.767 49.7744 390.788 33.1227 390.962C16.471 391.137 9.96277 403.387 18.5892 418.33C27.2156 433.273 47.7125 445.253 64.3672 445.083C81.0218 444.914 87.5276 432.658 78.8977 417.71Z" fill="#D6BDFF" stroke="black" stroke-linecap="round" stroke-linejoin="round"/>
<path fill-rule="evenodd" clip-rule="evenodd" d="M73.0039 417.609C66.1289 405.7 49.8086 396.14 36.5572 396.265C23.3058 396.389 18.1366 406.144 25.0144 418.058C31.8923 429.972 48.2097 439.527 61.4611 439.402C74.7125 439.278 79.8817 429.523 73.0039 417.609Z" fill="#A36EFE" stroke="black" stroke-linecap="round" stroke-linejoin="round"/>
<path fill-rule="evenodd" clip-rule="evenodd" d="M32.4259 409.936C34.321 409.444 35.6258 409.147 40.7769 408.412C45.1947 407.782 47.4814 407.603 49.7121 407.47C50.2909 407.451 50.8677 407.549 51.4072 407.758C51.9467 407.967 52.4376 408.282 52.8502 408.685L60.6316 417.262C60.4452 417.353 60.2526 417.462 60.0352 417.584C58.9106 418.223 57.1461 419.225 52.3803 419.905C49.1282 420.396 45.8243 420.454 42.5564 420.077C42.1773 420.039 41.848 420.006 41.5497 419.983L32.2212 411.626C31.3573 410.852 31.5498 410.163 32.4259 409.935L32.4259 409.936ZM64.3545 421.372C64.3532 421.389 64.349 421.405 64.342 421.42C63.9818 422.446 62.5842 424.233 57.489 424.959C53.2898 425.584 48.9984 425.124 45.0302 423.625C44.8464 423.55 44.6764 423.446 44.5268 423.317L42.7493 421.681C41.6619 421.456 40.5123 421.192 40.5123 421.192C38.7537 420.834 38.1636 421.791 39.2948 422.914C41.122 424.726 44.7573 426.337 48.3118 427.172C52.2061 428.015 56.2202 428.167 60.1677 427.623C63.4733 427.151 66.9093 426.034 68.2449 424.33C69.4314 422.819 69.3067 420.707 67.4733 418.896C66.3421 417.776 64.2107 417.207 63.5274 417.91C63.5274 417.91 63.136 418.395 62.7197 418.833L64.2922 420.518C64.3847 420.604 64.4422 420.721 64.4538 420.847C64.4452 421.026 64.4117 421.203 64.3545 421.372Z" fill="#4C2896" stroke="black" stroke-linecap="round" stroke-linejoin="round"/>
<path fill-rule="evenodd" clip-rule="evenodd" d="M832.833 226.901L832.821 273.249L792.137 296.825V296.506L791.998 296.636L777.905 288.258L815.112 252.616L792.149 265.926V265.78L791.912 266.004L777.812 257.628L818.427 218.728L832.833 226.901Z" fill="#009A9A" stroke="black" stroke-linecap="round" stroke-linejoin="round"/>
<path fill-rule="evenodd" clip-rule="evenodd" d="M816.402 251.812L802.453 243.694L777.812 257.628L791.912 266.005L816.402 251.812Z" fill="#007283" stroke="black" stroke-linecap="round" stroke-linejoin="round"/>
<path fill-rule="evenodd" clip-rule="evenodd" d="M832.885 273.288L818.525 265.061L832.885 273.288Z" fill="#FBD730"/>
<path d="M832.885 273.288L818.525 265.061" stroke="black" stroke-linecap="round" stroke-linejoin="round"/>
<path fill-rule="evenodd" clip-rule="evenodd" d="M777.789 257.698L802.343 243.47L802.337 258.023L777.783 272.252L777.777 288.597L818.461 265.021L818.479 218.673L777.795 242.249L777.789 257.698Z" fill="#26E6E6" stroke="black" stroke-linecap="round" stroke-linejoin="round"/>
<path fill-rule="evenodd" clip-rule="evenodd" d="M421.899 365.593C421.838 365.654 421.764 365.697 421.704 365.758L421.719 365.773L382.484 404.91L382.474 404.899C382.447 404.937 382.418 404.973 382.386 405.007C379.387 408.014 372.542 406.031 367.1 400.578C361.658 395.125 359.675 388.264 362.675 385.257C362.708 385.224 362.75 385.203 362.783 385.17L362.773 385.16L402.008 346.023L402.023 346.038C402.084 345.978 402.127 345.904 402.187 345.844C405.196 342.828 412.047 344.804 417.489 350.257C422.931 355.71 424.907 362.578 421.899 365.593Z" fill="#01BCBC" stroke="black" stroke-linecap="round" stroke-linejoin="round"/>
<path fill-rule="evenodd" clip-rule="evenodd" d="M406.597 361.18C412.039 366.633 418.89 368.609 421.899 365.593C424.908 362.577 422.937 355.715 417.489 350.257C412.041 344.799 405.196 342.828 402.187 345.844C399.179 348.86 401.15 355.721 406.597 361.18Z" fill="#6AE65F" stroke="black" stroke-linecap="round" stroke-linejoin="round"/>
<path fill-rule="evenodd" clip-rule="evenodd" d="M334.168 315.765V262.235L355.455 274.372L334.168 315.765Z" fill="#00BFBF" stroke="black" stroke-linejoin="round"/>
<path fill-rule="evenodd" clip-rule="evenodd" d="M334.168 315.765V262.235L312.819 274.688L334.168 315.765Z" fill="#34FFFF" stroke="black" stroke-linejoin="round"/>
<path fill-rule="evenodd" clip-rule="evenodd" d="M312.821 274.787L334.219 262.11L355.576 274.24L334.059 287.053L312.821 274.787Z" fill="#009595" stroke="black" stroke-linejoin="round"/>
<path fill-rule="evenodd" clip-rule="evenodd" d="M334.184 227.45V281.208L312.264 268.275L334.184 227.45Z" fill="#34FFFF" stroke="black" stroke-linejoin="round"/>
<path fill-rule="evenodd" clip-rule="evenodd" d="M334.044 227.366V281.057L355.768 268.152L334.044 227.366Z" fill="#00BFBF" stroke="black" stroke-linejoin="round"/>
<path fill-rule="evenodd" clip-rule="evenodd" d="M812.574 458.125C795.297 458.291 774.024 445.698 765.061 429.998C760.934 422.769 760.144 416.146 762.171 411.083L762.151 411.072L762.224 410.951C762.696 409.803 763.325 408.725 764.092 407.749L768.304 400.531L771.836 402.548C774.513 401.695 777.307 401.265 780.117 401.272C797.395 401.106 818.668 413.699 827.63 429.399C828.852 431.511 829.837 433.752 830.567 436.08L836.092 439.235L829.936 449.774L829.864 449.73C827.099 454.845 821.131 458.045 812.574 458.125Z" fill="#E29752" stroke="black" stroke-linecap="round" stroke-linejoin="round"/>
<path fill-rule="evenodd" clip-rule="evenodd" d="M833.436 419.45C824.474 403.751 803.2 391.158 785.923 391.324C768.646 391.49 761.905 404.35 770.868 420.05C779.831 435.75 801.105 448.342 818.383 448.176C835.662 448.01 842.399 435.149 833.436 419.45Z" fill="#FFE24A" stroke="black" stroke-linecap="round" stroke-linejoin="round"/>
<path fill-rule="evenodd" clip-rule="evenodd" d="M825.409 419.513C818.688 407.741 802.764 398.282 789.845 398.385C776.927 398.487 771.902 408.114 778.623 419.886C785.344 431.658 801.266 441.117 814.185 441.014C827.104 440.912 832.131 431.286 825.409 419.513Z" stroke="black" stroke-linecap="round" stroke-linejoin="round"/>
<path fill-rule="evenodd" clip-rule="evenodd" d="M816.853 427.028C816.106 428.066 814.924 428.477 812.677 428.5L814.482 431.665L810.679 431.689L808.871 428.524L806.967 428.536L808.776 431.7L804.97 431.723L803.163 428.558L800.626 428.573L797.767 428.59L796.099 425.667L798.957 425.65L791.299 412.252L788.444 412.269L786.776 409.346L789.634 409.329L792.172 409.313L790.365 406.151L794.171 406.127L795.979 409.291L797.882 409.279L796.063 406.112L799.869 406.088L801.699 409.289C805.489 409.458 809.128 411.411 810.742 414.235C811.979 416.399 811.448 417.966 809.181 418.79C812.813 419.434 815.403 421.011 816.752 423.377C817.578 424.823 817.636 426.039 816.853 427.028ZM804.84 414.939C804.425 414.274 803.845 413.728 803.157 413.351C802.469 412.975 801.696 412.782 800.911 412.791L797.92 412.81L800.361 417.084L803.352 417.065C804.959 417.05 805.549 416.181 804.84 414.939ZM809.698 422.785C808.907 421.4 807.233 420.571 805.213 420.583L802.372 420.601L804.894 425.015L807.736 424.998C809.794 424.986 810.491 424.171 809.699 422.785H809.698Z" fill="#FF9415" stroke="black" stroke-linecap="round" stroke-linejoin="round"/>
<path fill-rule="evenodd" clip-rule="evenodd" d="M191.033 237.817C198.26 235.858 205.908 236.087 213.007 238.474C220.107 240.861 226.338 245.3 230.913 251.227C235.488 257.155 238.2 264.305 238.707 271.772C239.213 279.24 237.491 286.688 233.758 293.175C230.025 299.662 224.449 304.895 217.737 308.212C211.024 311.529 203.477 312.781 196.051 311.808C188.624 310.836 181.653 307.683 176.019 302.75C170.385 297.816 166.342 291.324 164.402 284.094C163.109 279.307 162.772 274.312 163.41 269.396C164.049 264.479 165.65 259.737 168.123 255.44C170.596 251.143 173.892 247.374 177.823 244.351C181.754 241.327 186.243 239.107 191.033 237.817Z" fill="#FFD581" stroke="black" stroke-linecap="round" stroke-linejoin="round"/>
<path fill-rule="evenodd" clip-rule="evenodd" d="M197.033 236.211C204.261 234.251 211.909 234.478 219.009 236.865C226.109 239.251 232.341 243.688 236.917 249.616C241.493 255.543 244.206 262.693 244.713 270.16C245.221 277.628 243.499 285.077 239.766 291.565C236.034 298.052 230.458 303.286 223.746 306.603C217.033 309.921 209.486 311.173 202.059 310.201C194.632 309.229 187.66 306.076 182.026 301.142C176.392 296.209 172.349 289.716 170.409 282.486C167.798 272.819 169.136 262.513 174.129 253.835C179.122 245.157 187.361 238.818 197.033 236.211Z" fill="#F8BB1C" stroke="black" stroke-linecap="round" stroke-linejoin="round"/>
<path fill-rule="evenodd" clip-rule="evenodd" d="M199.072 243.808C204.796 242.255 210.854 242.434 216.478 244.323C222.101 246.213 227.038 249.727 230.663 254.421C234.288 259.115 236.438 264.779 236.84 270.693C237.242 276.608 235.879 282.508 232.923 287.647C229.967 292.785 225.551 296.931 220.234 299.559C214.918 302.187 208.94 303.179 203.057 302.409C197.175 301.639 191.653 299.143 187.19 295.235C182.727 291.327 179.525 286.185 177.988 280.458C175.919 272.802 176.979 264.64 180.932 257.767C184.886 250.894 191.411 245.872 199.072 243.808Z" fill="#F8BB1C" stroke="black" stroke-linecap="round" stroke-linejoin="round"/>
<path fill-rule="evenodd" clip-rule="evenodd" d="M188.413 270.458C188.413 270.458 181.707 258.42 184.87 255.874C188.033 253.329 195.836 261.076 195.836 261.076C196.746 259.818 197.797 258.668 198.968 257.649C198.968 257.649 194.081 246.898 197.103 245.205C200.124 243.511 207.249 252.845 207.249 252.845C207.249 252.845 210.289 251.301 215.549 253.582C223.386 256.983 228.342 264.212 228.342 264.212C228.342 264.212 240.483 272.519 226.589 286.5C226.589 286.5 227.372 295.166 216.448 298.089C208.587 300.192 202.757 295.096 202.757 295.096C202.757 295.096 194.598 299.307 190.096 291.827C185.593 284.347 188.413 270.458 188.413 270.458Z" fill="#DF805A" stroke="black" stroke-linecap="round"/>
<path fill-rule="evenodd" clip-rule="evenodd" d="M227.923 285.08C227.657 285.264 227.384 285.447 227.095 285.623C216.335 292.203 210.852 289.6 210.852 289.6C200.813 289.928 195.051 282.273 197.688 277.588C200.325 272.904 208.711 278.121 210.269 276.441C222.183 263.586 228.435 264.553 228.435 264.553C228.659 264.626 228.879 264.712 229.093 264.81C231.413 266.863 237.753 274.086 227.923 285.08Z" fill="#FFFDCF" stroke="black" stroke-linecap="round"/>
<path fill-rule="evenodd" clip-rule="evenodd" d="M203.286 265.922C204.364 266.182 204.895 267.727 204.486 269.369C204.076 271.012 202.864 272.141 201.793 271.88C200.722 271.619 200.185 270.075 200.594 268.433C201.003 266.79 202.216 265.662 203.286 265.922ZM215.786 257.217C217.302 256.812 218.785 257.408 219.092 258.552C219.399 259.696 218.413 260.952 216.897 261.358C215.381 261.763 213.904 261.165 213.598 260.022C213.291 258.879 214.27 257.623 215.786 257.217ZM189.388 267.241C187.504 265.154 185.942 260.021 187.165 258.96C188.389 257.899 192.799 261.1 193.525 262.067C194.25 263.034 195.693 265.371 193.446 267.266C191.198 269.16 190.662 268.643 189.388 267.241ZM203.341 256.112C202.052 256.799 200.462 256.238 199.233 253.142C198.005 250.047 197.817 248.197 198.874 247.689C199.93 247.18 202.54 250.06 203.698 251.948C204.856 253.836 205.274 255.087 203.341 256.112Z" fill="#FFFDCF" stroke="black" stroke-linecap="round"/>
<path fill-rule="evenodd" clip-rule="evenodd" d="M218.482 267.953C217.356 268.255 216.313 268.047 216.009 267.5C217.132 267.139 217.891 266.388 217.722 265.758C217.702 265.703 217.676 265.649 217.645 265.599C217.709 265.582 217.77 265.554 217.834 265.537C219.068 265.207 220.211 265.481 220.39 266.148C220.569 266.814 219.717 267.623 218.482 267.953ZM209.266 273.391C208.031 273.721 206.867 273.367 206.662 272.602C206.658 272.589 206.661 272.576 206.658 272.564C207.609 272.172 208.211 271.503 208.058 270.933C208.043 270.889 208.024 270.846 208.003 270.804C208.171 270.729 208.344 270.667 208.522 270.618C209.75 270.29 210.921 270.641 211.126 271.407C211.332 272.173 210.494 273.062 209.266 273.391Z" fill="black" stroke="black" stroke-linecap="round"/>
<path fill-rule="evenodd" clip-rule="evenodd" d="M222.375 268.025C219.478 269.541 218.695 271.962 219.614 272.832C220.533 273.702 223.77 275.574 226.694 273.157C229.617 270.739 228.008 268.322 227.025 267.518C226.041 266.714 224.22 267.057 222.375 268.025Z" fill="black" stroke="black" stroke-linecap="round"/>
<ellipse cx="321.753" cy="339.172" rx="7.44763" ry="7.9721" fill="white" stroke="black" stroke-linecap="round" stroke-linejoin="round"/>
<ellipse cx="846.279" cy="296.655" rx="7.44763" ry="7.9721" fill="#54FFF9" stroke="black" stroke-linecap="round" stroke-linejoin="round"/>
<g clip-path="url(#clip0_59_174)">
<path fill-rule="evenodd" clip-rule="evenodd" d="M865.98 198.893C874.425 214.546 896.215 227.508 914.658 227.844C923.67 228.007 930.207 225.118 933.554 220.299L933.568 220.307L933.643 220.179C934.002 219.645 934.325 219.088 934.61 218.511L939.729 209.668L935.519 207.136C934.908 204.684 933.98 202.321 932.757 200.109C924.319 184.456 902.522 171.493 884.086 171.159C881.632 171.099 879.179 171.311 876.771 171.789L871.113 168.385L864.784 179.126L864.862 179.174C861.679 184.182 861.795 191.139 865.98 198.893Z" fill="#FF7725" stroke="black" stroke-linecap="round" stroke-linejoin="round"/>
<path fill-rule="evenodd" clip-rule="evenodd" d="M889.595 161.237C908.039 161.573 929.835 174.534 938.274 190.187C946.712 205.84 938.611 218.257 920.168 217.922C901.724 217.586 879.935 204.625 871.496 188.972C863.058 173.319 871.159 160.901 889.595 161.237Z" fill="#FBD730" stroke="black" stroke-linecap="round" stroke-linejoin="round"/>
<path fill-rule="evenodd" clip-rule="evenodd" d="M892.735 166.692C907.437 166.96 924.809 177.27 931.538 189.719C938.267 202.168 931.809 212.044 917.106 211.777C902.404 211.509 885.039 201.2 878.31 188.75C871.581 176.301 878.039 166.425 892.735 166.692Z" fill="#FBD730" stroke="black" stroke-linecap="round" stroke-linejoin="round"/>
<path fill-rule="evenodd" clip-rule="evenodd" d="M906.049 189.963C910.928 185.82 919.573 185.776 925.364 189.865C931.154 193.954 931.907 200.628 927.028 204.772C922.149 208.916 913.511 208.96 907.713 204.87C901.916 200.78 901.178 194.107 906.049 189.963Z" fill="#F1951F" stroke="black" stroke-linecap="round"/>
<path fill-rule="evenodd" clip-rule="evenodd" d="M926.498 204.396C921.715 208.458 913.387 208.605 907.89 204.724C907.537 204.478 907.198 204.214 906.875 203.931C907.006 203.572 907.23 203.254 907.523 203.009C909.299 201.499 912.391 202.915 913.165 202.26C913.939 201.605 910.48 198.476 913.944 195.537C917.407 192.597 920.489 195.36 921.616 194.405C922.685 193.492 920.432 189.855 924.019 189.271C924.42 189.501 924.815 189.747 925.194 190.018C930.691 193.893 931.274 200.333 926.498 204.396Z" fill="white"/>
<path d="M917.059 205.012C915.252 204.198 913.57 203.133 912.063 201.847C909.549 199.386 910.235 198.01 910.235 198.01L909.57 197.904C909.57 197.904 908.29 198.459 908.966 201.114" stroke="black" stroke-linecap="round"/>
<path d="M925.901 197.161C924.574 195.762 923.047 194.568 921.37 193.617C918.001 191.895 916.35 192.514 916.35 192.514L916.142 192.019C916.142 192.019 916.697 191.015 920.115 191.33" stroke="black" stroke-linecap="round"/>
<path fill-rule="evenodd" clip-rule="evenodd" d="M906.771 195.565C907.287 195.126 908.673 195.455 909.868 196.298C911.064 197.14 911.617 198.183 911.101 198.621C910.585 199.06 909.199 198.731 908.004 197.888C906.808 197.046 906.255 196.004 906.771 195.565Z" fill="black"/>
<path fill-rule="evenodd" clip-rule="evenodd" d="M907.983 195.878C908.196 195.821 908.421 195.82 908.634 195.875C908.848 195.929 909.044 196.038 909.203 196.19C909.683 196.528 909.914 196.936 909.723 197.1C909.51 197.157 909.286 197.158 909.072 197.103C908.858 197.049 908.662 196.94 908.503 196.787C908.023 196.45 907.792 196.042 907.983 195.878Z" fill="white"/>
<path fill-rule="evenodd" clip-rule="evenodd" d="M913.079 190.198C913.602 189.759 914.989 190.089 916.184 190.932C917.379 191.774 917.933 192.816 917.417 193.255C916.901 193.694 915.508 193.364 914.312 192.522C913.117 191.679 912.563 190.637 913.079 190.198Z" fill="black"/>
<path fill-rule="evenodd" clip-rule="evenodd" d="M914.81 196.145C913.646 197.131 913.624 197.532 914.268 197.947C914.913 198.361 916.597 198.666 917.172 198.176C917.747 197.685 917.506 196.225 916.84 195.76C916.175 195.295 915.252 195.764 914.81 196.145Z" fill="black"/>
<path d="M914.451 192.655C914.97 192.664 915.398 192.252 915.407 191.734C915.417 191.216 915.005 190.788 914.486 190.779C913.968 190.769 913.539 191.181 913.53 191.699C913.52 192.217 913.933 192.645 914.451 192.655Z" fill="white"/>
<path fill-rule="evenodd" clip-rule="evenodd" d="M920.728 198.866L921.594 199.477C922.667 200.237 923.069 201.253 922.487 201.747C921.904 202.24 920.56 202.025 919.486 201.266L918.62 200.654C918.62 200.654 919.369 199.364 918.274 198.591C919.039 198.951 919.902 199.047 920.728 198.866Z" fill="#C1204A" stroke="black" stroke-linecap="round" stroke-linejoin="round"/>
<path fill-rule="evenodd" clip-rule="evenodd" d="M915.301 199.768C915.301 199.768 917.219 201.508 918.405 200.502C919.592 199.496 916.972 197.673 916.972 197.673" fill="white"/>
<path d="M915.301 199.768C915.301 199.768 917.219 201.508 918.405 200.502C919.592 199.496 916.972 197.673 916.972 197.673" stroke="black" stroke-linecap="round"/>
<path fill-rule="evenodd" clip-rule="evenodd" d="M918.274 198.591C918.274 198.591 919.607 199.479 920.506 198.713C921.405 197.947 919.71 196.695 919.71 196.695" fill="white"/>
<path d="M918.274 198.591C918.274 198.591 919.607 199.479 920.506 198.713C921.405 197.947 919.71 196.695 919.71 196.695" stroke="black" stroke-linecap="round"/>
<path fill-rule="evenodd" clip-rule="evenodd" d="M898.197 196.787C898.197 196.787 893.103 198.511 886.029 193.654C878.955 188.798 878.602 185.14 878.602 185.14C878.602 185.14 886.275 192.891 894.506 189.816C894.506 189.817 901.494 193.481 898.197 196.787ZM913.674 183.633C913.674 183.633 915.374 179.582 908.469 174.574C901.565 169.567 896.864 169.615 896.864 169.615C896.864 169.615 907.522 174.831 904.404 181.402C904.404 181.402 909.77 186.444 913.674 183.633Z" fill="#F1951F" stroke="black" stroke-linecap="round" stroke-linejoin="round"/>
<path fill-rule="evenodd" clip-rule="evenodd" d="M905.047 189.618C901.849 192.335 900.701 195.912 901.562 199.147C894.353 193.728 891.772 186.747 895.832 183.297C899.826 179.902 908.803 181.148 916.363 186.007C912.272 185.754 908.235 187.042 905.047 189.618Z" fill="#575352" stroke="black" stroke-linecap="round" stroke-linejoin="round"/>
<path fill-rule="evenodd" clip-rule="evenodd" d="M893.046 182.969L895.228 181.116L905.582 187.814L902.619 190.333L893.046 182.969Z" fill="#9F9C99" stroke="black" stroke-linecap="round" stroke-linejoin="round"/>
<path fill-rule="evenodd" clip-rule="evenodd" d="M900.13 198.515C899.334 197.295 898.954 192.769 903.98 188.501C909.006 184.234 913.94 184.145 915.362 184.893C916.783 185.641 918.594 186.962 916.587 187.217C913.313 187.902 910.249 189.354 907.646 191.452C904.948 193.746 904.151 198.763 903.665 199.554C903.178 200.346 900.955 199.782 900.13 198.515Z" fill="#88908F" stroke="black" stroke-linecap="round" stroke-linejoin="round"/>
</g>
<g clip-path="url(#clip1_59_174)">
<path d="M236.105 85.9993C259.503 85.9993 278.47 67.049 278.47 43.6727C278.47 20.2964 259.503 1.34619 236.105 1.34619C212.708 1.34619 193.74 20.2964 193.74 43.6727C193.74 67.049 212.708 85.9993 236.105 85.9993Z" fill="#D7A01D" stroke="black" stroke-linejoin="round"/>
<path d="M236.298 81.1976C256.935 81.1976 273.664 64.4832 273.664 43.8649C273.664 23.2466 256.935 6.53223 236.298 6.53223C215.661 6.53223 198.931 23.2466 198.931 43.8649C198.931 64.4832 215.661 81.1976 236.298 81.1976Z" fill="#F5C249" stroke="black" stroke-linejoin="round"/>
<path fill-rule="evenodd" clip-rule="evenodd" d="M233.583 19.1672C233.735 19.1672 230.444 15.2619 228.566 11.4979C227.537 9.41921 225.616 11.2082 225.224 12.1649C223.195 17.1624 223.912 20.6288 224.557 22.1686C227.175 20.2446 230.333 19.1943 233.583 19.1672Z" fill="#F5C249" stroke="black" stroke-linejoin="round"/>
<path fill-rule="evenodd" clip-rule="evenodd" d="M262.007 56.1796C263.554 59.8135 264.629 63.6306 265.204 67.5376C261.78 71.7159 257.488 75.1005 252.625 77.4569C247.762 79.8133 242.445 81.0852 237.041 81.1844C236.106 81.1844 235.192 81.1692 234.315 81.1489C224.786 80.6484 215.814 76.5137 209.247 69.5974C210.563 65.23 212.45 61.0548 214.858 57.1798C212.084 53.4055 210.566 48.8573 210.515 44.1754C210.515 34.3253 213.669 28.8788 217.533 25.8361C219.911 23.9631 228.233 19.167 228.233 19.167C229.628 18.6732 231.103 18.4469 232.582 18.4999C235.004 18.597 235.663 19.5002 237.599 19.5002C239.534 19.5002 244.957 19.8341 244.957 19.8341C244.957 19.8341 252.235 11.4238 254.99 12.8318C257.745 14.2398 258.992 19.8898 257.998 28.8382C257.998 28.8368 264.979 34.321 262.007 56.1796Z" fill="#F5C047" stroke="black" stroke-linejoin="round"/>
<path d="M232.894 23.1114C232.894 23.1114 233.663 20.5627 235.866 20.2144" stroke="black" stroke-linecap="round" stroke-linejoin="round"/>
<path fill-rule="evenodd" clip-rule="evenodd" d="M249.973 22.4516C249.973 22.4516 251.742 16.3677 254.04 16.8703C256.338 17.373 255.519 26.1722 255.519 26.1722C254.047 24.4473 252.129 23.1602 249.973 22.4516Z" fill="#E89513" stroke="black" stroke-linejoin="round"/>
<path fill-rule="evenodd" clip-rule="evenodd" d="M232.887 31.4053C232.887 31.4053 232.242 27.0893 236.258 26.4454C240.274 25.8016 240.607 29.7771 240.607 29.7771C240.607 29.7771 238.541 28.6878 236.258 29.2324C233.974 29.7771 232.887 31.4053 232.887 31.4053ZM220.541 27.4464C220.541 27.4464 223.542 23.8417 225.891 25.112C228.24 26.3824 226.725 29.7771 226.725 29.7771C226.725 29.7771 226.362 27.4493 224.55 27.0596C223.281 26.4491 220.541 27.4493 220.541 27.4493V27.4464Z" fill="#FFF1D2" stroke="black" stroke-linejoin="round"/>
<path fill-rule="evenodd" clip-rule="evenodd" d="M249.973 61.5155C253.801 61.6792 257.469 58.1165 259.673 58.8473C261.05 59.3072 260.434 67.104 258.702 73.7376C252.445 78.4348 244.865 81.0408 237.041 81.1846C236.105 81.1846 235.192 81.1694 234.315 81.1491C225.997 80.715 218.065 77.5034 211.791 72.029C211.995 68.6909 212.577 65.3866 213.524 62.1789C213.926 60.9899 214.117 59.7399 214.089 58.4851C214.336 58.0542 214.589 57.6204 214.858 57.1771C214.361 56.5297 213.913 55.8468 213.517 55.1339C212.734 52.5345 211.371 50.1256 210.776 47.4182C210.606 46.3448 210.518 45.2597 210.515 44.1728C210.515 43.8106 210.523 43.4608 210.53 43.1081C210.827 39.6807 211.971 36.3805 213.857 33.5028C215.684 30.4949 217.939 29.2795 218.54 29.9567C219.142 30.6339 217.265 34.755 218.54 35.8371C219.639 36.8466 222.549 37.5029 222.549 37.5029C222.549 37.5029 226.95 38.4018 229.24 38.17C231.531 37.9382 230.98 39.8279 233.923 39.5041C236.867 39.1804 239.81 39.4766 241.948 37.8383C244.087 36.2 247.192 34.1686 250.307 35.5039C253.981 37.0793 255.36 40.4587 253.649 45.1737C251.938 49.8888 246.146 61.3511 249.973 61.5155Z" fill="#FFF1D2" stroke="black" stroke-linejoin="round"/>
<path fill-rule="evenodd" clip-rule="evenodd" d="M214.763 57.1167C214.763 57.1167 217.583 62.5842 225.347 64.5593C243.181 69.094 258.622 58.8824 258.622 58.8824C258.622 58.8824 244.631 72.9044 224.891 68.5196C215.619 66.4583 214.394 58.8824 214.394 58.8824L214.763 57.1167Z" fill="#C7A087"/>
<path fill-rule="evenodd" clip-rule="evenodd" d="M217.533 52.1787C217.533 52.1787 220.527 55.1562 228.566 53.8445C234.206 52.9262 234.257 52.1787 234.257 52.1787C234.257 52.1787 231.865 57.7897 227.899 57.8469C225.818 57.9373 223.752 57.4569 221.925 56.4577C220.097 55.4586 218.578 53.9788 217.533 52.1787Z" fill="#C3A07A"/>
<path fill-rule="evenodd" clip-rule="evenodd" d="M224.057 44.8388C224.156 44.8373 224.254 44.8653 224.337 44.9193C224.421 44.9733 224.486 45.0509 224.526 45.1422C224.565 45.2335 224.576 45.3344 224.557 45.432C224.539 45.5296 224.492 45.6195 224.422 45.6903C224.352 45.7611 224.263 45.8095 224.166 45.8295C224.068 45.8495 223.967 45.84 223.875 45.8024C223.783 45.7648 223.705 45.7006 223.649 45.6182C223.594 45.5357 223.564 45.4386 223.564 45.3393C223.564 45.2078 223.615 45.0815 223.708 44.9878C223.8 44.8941 223.925 44.8406 224.057 44.8388ZM227.058 43.8372C227.158 43.8354 227.256 43.8634 227.339 43.9174C227.423 43.9714 227.489 44.0491 227.528 44.1405C227.567 44.2319 227.578 44.3329 227.56 44.4307C227.542 44.5285 227.495 44.6186 227.425 44.6896C227.355 44.7605 227.266 44.8092 227.168 44.8292C227.071 44.8493 226.969 44.8398 226.877 44.8022C226.785 44.7645 226.706 44.7003 226.651 44.6177C226.595 44.5351 226.565 44.4379 226.565 44.3384C226.565 44.2069 226.617 44.0808 226.709 43.987C226.801 43.8933 226.927 43.8395 227.058 43.8372ZM230.074 43.5083C230.173 43.5082 230.27 43.5374 230.353 43.5923C230.435 43.6472 230.499 43.7254 230.537 43.8168C230.575 43.9082 230.585 44.0089 230.566 44.106C230.547 44.2031 230.499 44.2924 230.429 44.3625C230.359 44.4325 230.27 44.4803 230.173 44.4996C230.076 44.519 229.975 44.5091 229.883 44.4713C229.792 44.4334 229.713 44.3693 229.658 44.287C229.603 44.2046 229.574 44.1078 229.574 44.0088C229.574 43.8762 229.626 43.749 229.72 43.6552C229.814 43.5614 229.941 43.5085 230.074 43.5083ZM226.732 45.8398C226.831 45.8411 226.927 45.8715 227.009 45.9273C227.09 45.9831 227.153 46.0617 227.19 46.1532C227.227 46.2448 227.236 46.3452 227.216 46.4418C227.196 46.5385 227.148 46.627 227.077 46.6964C227.007 46.7657 226.918 46.8128 226.821 46.8315C226.724 46.8503 226.624 46.84 226.532 46.802C226.441 46.7639 226.363 46.6998 226.309 46.6176C226.254 46.5355 226.225 46.439 226.225 46.3403C226.225 46.274 226.238 46.2085 226.264 46.1475C226.289 46.0864 226.327 46.031 226.374 45.9845C226.421 45.938 226.477 45.9012 226.539 45.8764C226.6 45.8516 226.666 45.8391 226.732 45.8398ZM229.74 45.5102C229.838 45.5127 229.932 45.5437 230.012 45.5996C230.092 45.6554 230.154 45.7335 230.189 45.8242C230.225 45.9148 230.233 46.0139 230.212 46.109C230.192 46.2042 230.143 46.2912 230.074 46.3591C230.004 46.427 229.916 46.4729 229.82 46.4909C229.724 46.5089 229.625 46.4983 229.535 46.4604C229.446 46.4225 229.369 46.3591 229.315 46.2779C229.262 46.1967 229.233 46.1015 229.233 46.0042C229.236 45.872 229.291 45.7464 229.386 45.6541C229.481 45.5618 229.608 45.5102 229.74 45.5102ZM215.858 42.1786C215.923 42.1779 215.988 42.1966 216.042 42.2324C216.097 42.2681 216.14 42.3193 216.165 42.3795C216.191 42.4396 216.198 42.506 216.186 42.5702C216.173 42.6343 216.142 42.6934 216.096 42.7398C216.05 42.7863 215.992 42.818 215.927 42.8311C215.863 42.8441 215.797 42.8378 215.736 42.8129C215.676 42.7881 215.624 42.7459 215.588 42.6916C215.551 42.6373 215.532 42.5735 215.532 42.5081C215.531 42.421 215.565 42.3373 215.626 42.2752C215.688 42.2132 215.771 42.1779 215.858 42.1771V42.1786ZM216.866 43.8386C216.955 43.8386 217.041 43.874 217.104 43.937C217.167 44.0001 217.202 44.0855 217.202 44.1747C217.202 44.2638 217.167 44.3493 217.104 44.4123C217.041 44.4753 216.955 44.5107 216.866 44.5107C216.776 44.5107 216.691 44.4753 216.627 44.4121C216.564 44.3489 216.529 44.2633 216.529 44.174C216.529 44.0846 216.564 43.999 216.627 43.9358C216.691 43.8727 216.776 43.8372 216.866 43.8372V43.8386ZM215.532 39.8472C215.619 39.8472 215.703 39.8819 215.765 39.9437C215.827 40.0055 215.862 40.0893 215.862 40.1767C215.862 40.2641 215.827 40.3479 215.765 40.4097C215.703 40.4715 215.619 40.5062 215.532 40.5062C215.444 40.5062 215.36 40.4714 215.298 40.4095C215.236 40.3476 215.201 40.2636 215.201 40.176C215.201 40.0884 215.236 40.0044 215.298 39.9424C215.36 39.8805 215.444 39.8457 215.532 39.8457V39.8472ZM214.524 41.1653C214.611 41.1693 214.692 41.2065 214.752 41.269C214.812 41.3315 214.845 41.4146 214.845 41.501C214.845 41.5875 214.812 41.6706 214.752 41.7331C214.692 41.7956 214.611 41.8327 214.524 41.8367C214.435 41.8367 214.349 41.8013 214.286 41.7382C214.223 41.6751 214.188 41.5895 214.188 41.5003C214.188 41.4111 214.223 41.3255 214.286 41.2624C214.349 41.1993 214.435 41.1639 214.524 41.1639V41.1653ZM214.865 43.5098C214.951 43.5138 215.033 43.5509 215.093 43.6134C215.152 43.676 215.186 43.7591 215.186 43.8455C215.186 43.9319 215.152 44.015 215.093 44.0776C215.033 44.1401 214.951 44.1772 214.865 44.1812C214.821 44.1812 214.777 44.1725 214.736 44.1556C214.695 44.1387 214.658 44.1139 214.627 44.0827C214.596 44.0514 214.571 44.0143 214.554 43.9735C214.537 43.9327 214.528 43.889 214.528 43.8448C214.528 43.8006 214.537 43.7568 214.554 43.716C214.571 43.6752 214.596 43.6381 214.627 43.6069C214.658 43.5756 214.695 43.5509 214.736 43.534C214.777 43.5171 214.821 43.5083 214.865 43.5083V43.5098Z" fill="black"/>
<path fill-rule="evenodd" clip-rule="evenodd" d="M215.191 42.8423C215.254 43.658 215.484 44.4522 215.866 45.1759C216.561 46.2833 218.671 47.566 220.541 46.8417C220.541 46.8417 222.397 48.7908 226.232 49.1761C234.489 50.0068 234.257 46.5086 234.257 46.5086C234.257 46.5086 233.989 48.2041 232.996 48.6683C230.603 49.7881 225.812 50.2849 221.216 48.8429C217.395 47.6442 216.779 46.8417 215.866 45.5112C215.408 44.6968 215.176 43.7758 215.191 42.8423Z" fill="#612322" stroke="black" stroke-linejoin="round"/>
<path fill-rule="evenodd" clip-rule="evenodd" d="M217.533 41.842C217.366 41.4668 216.431 37.195 221.215 37.5065C224.869 37.7447 226.232 39.8408 226.232 39.8408C226.232 39.8408 225.927 42.2389 224.891 42.8422C223.854 43.4455 223.245 44.4747 220.882 44.1756C220.167 44.1169 219.48 43.87 218.892 43.4601C218.304 43.0502 217.835 42.4919 217.533 41.842Z" fill="black" stroke="black" stroke-linejoin="round"/>
<path fill-rule="evenodd" clip-rule="evenodd" d="M233.264 33.8382C233.829 33.0859 234.571 32.4851 235.425 32.0893C236.279 31.6935 237.217 31.515 238.157 31.5697C241.281 31.8442 241.26 34.5066 241.26 34.5066C240.935 35.2517 240.386 35.8778 239.691 36.2989C238.995 36.72 238.186 36.9155 237.374 36.8584C236.462 36.834 235.58 36.5316 234.845 35.9918C234.11 35.4519 233.559 34.7004 233.264 33.8382Z" fill="white" stroke="black" stroke-linecap="round" stroke-linejoin="round"/>
<path d="M238.269 36.2601C239.376 36.2601 240.274 35.3635 240.274 34.2575C240.274 33.1515 239.376 32.2549 238.269 32.2549C237.162 32.2549 236.265 33.1515 236.265 34.2575C236.265 35.3635 237.162 36.2601 238.269 36.2601Z" fill="black"/>
<path fill-rule="evenodd" clip-rule="evenodd" d="M237.938 32.4926C238.027 32.4971 238.115 32.5195 238.195 32.5584C238.276 32.5974 238.347 32.6521 238.406 32.7193C238.465 32.7865 238.51 32.8648 238.538 32.9496C238.566 33.0345 238.577 33.1241 238.569 33.2131C238.562 33.3021 238.537 33.3888 238.496 33.468C238.454 33.5471 238.397 33.6171 238.328 33.6739C238.259 33.7307 238.179 33.773 238.094 33.7983C238.008 33.8237 237.918 33.8316 237.829 33.8216C237.657 33.8021 237.499 33.7164 237.388 33.5825C237.278 33.4487 237.224 33.2772 237.239 33.1044C237.253 32.9316 237.334 32.7712 237.464 32.6569C237.595 32.5427 237.765 32.4838 237.938 32.4926Z" fill="white"/>
<path fill-rule="evenodd" clip-rule="evenodd" d="M220.541 31.1714C220.541 31.1714 221.085 28.8168 223.216 28.837C223.48 28.8366 223.741 28.888 223.984 28.9883C224.228 29.0886 224.449 29.2359 224.635 29.4218C224.822 29.6077 224.97 29.8284 225.071 30.0714C225.172 30.3145 225.224 30.575 225.224 30.8382C225.224 30.8382 224.536 33.5803 222.549 33.5057C221.063 33.4492 220.751 32.2498 220.541 31.1714Z" fill="white" stroke="black" stroke-linecap="round" stroke-linejoin="round"/>
<path d="M223.782 32.8087C224.582 32.8087 225.232 32.1602 225.232 31.3602C225.232 30.5602 224.582 29.9116 223.782 29.9116C222.981 29.9116 222.332 30.5602 222.332 31.3602C222.332 32.1602 222.981 32.8087 223.782 32.8087Z" fill="black"/>
<path fill-rule="evenodd" clip-rule="evenodd" d="M223.245 30.3188C223.343 30.3213 223.437 30.3523 223.517 30.4082C223.597 30.464 223.658 30.5421 223.694 30.6328C223.729 30.7234 223.737 30.8225 223.717 30.9176C223.696 31.0128 223.648 31.0998 223.578 31.1677C223.509 31.2356 223.42 31.2815 223.325 31.2995C223.229 31.3175 223.13 31.3069 223.04 31.269C222.95 31.2312 222.874 31.1677 222.82 31.0865C222.766 31.0054 222.738 30.9101 222.738 30.8128C222.741 30.6806 222.796 30.555 222.891 30.4627C222.986 30.3704 223.113 30.3188 223.245 30.3188Z" fill="white"/>
</g>
<ellipse cx="344.628" cy="188.765" rx="7.9796" ry="7.44063" fill="#C6FB7C" stroke="black" stroke-linecap="round" stroke-linejoin="round"/>
<g clip-path="url(#clip2_59_174)">
<path d="M370.341 151.923C393.055 151.923 411.468 133.386 411.468 110.519C411.468 87.6527 393.055 69.1157 370.341 69.1157C347.626 69.1157 329.213 87.6527 329.213 110.519C329.213 133.386 347.626 151.923 370.341 151.923Z" fill="#35832A" stroke="black" stroke-linecap="round" stroke-linejoin="round"/>
<path d="M368.9 146.846C391.614 146.846 410.027 128.309 410.027 105.442C410.027 82.5756 391.614 64.0386 368.9 64.0386C346.185 64.0386 327.772 82.5756 327.772 105.442C327.772 128.309 346.185 146.846 368.9 146.846Z" fill="#83DA74" stroke="black" stroke-linecap="round" stroke-linejoin="round"/>
<path fill-rule="evenodd" clip-rule="evenodd" d="M392.9 83.2203C397.284 87.9871 400.164 93.9563 401.176 100.372C402.188 106.788 401.286 113.362 398.585 119.261C395.883 125.16 391.503 130.12 386 133.512C380.497 136.904 374.117 138.576 367.67 138.315C361.222 138.055 354.996 135.875 349.78 132.05C344.564 128.225 340.593 122.928 338.369 116.83C336.145 110.732 335.769 104.107 337.288 97.793C338.807 91.4794 342.153 85.7615 346.902 81.3634C353.246 75.4691 361.657 72.3534 370.283 72.7016C378.909 73.0499 387.045 76.8335 392.9 83.2203Z" fill="#35832A" stroke="black" stroke-linecap="round" stroke-linejoin="round"/>
<path fill-rule="evenodd" clip-rule="evenodd" d="M359.374 79.8992C361.384 75.3389 365.672 74.557 372.906 76.4987C380.55 78.5486 379.924 82.4199 379.924 82.4199C379.924 82.4199 384.175 80.1052 388.642 82.0528C395.04 84.8404 392.569 92.8121 392.569 92.8121C392.569 92.8121 394.997 97.1367 394.536 99.7538C394.536 99.7538 396.589 102.359 393.657 105.879C393.657 105.879 392.482 109.64 388.627 110.024C388.988 110.926 389.128 111.903 389.033 112.87C388.939 113.838 388.615 114.769 388.087 115.583C385.147 120.163 383.562 120.393 383.562 120.393L380.169 124.382C380.169 124.382 377.373 128.666 373.9 128.64C373.9 128.64 371.738 130.269 364.699 130.618C364.699 130.618 347.802 128.181 342.363 116.111C337.643 105.636 340.568 89.1838 359.374 79.8992Z" fill="#77AD34" stroke="black" stroke-linecap="round" stroke-linejoin="round"/>
<path d="M363.914 83.7749C363.914 83.7749 368.957 80.5797 377.034 84.9637C383.483 88.4629 380.543 95.509 380.543 95.509" stroke="black" stroke-linecap="round" stroke-linejoin="round"/>
<path d="M380.925 88.7187C383.355 88.6896 385.77 89.1075 388.051 89.9518C391.812 91.5476 392.843 93.4024 392.843 93.4024" stroke="black" stroke-linecap="round" stroke-linejoin="round"/>
<path d="M386.156 96.7655C387.588 96.6106 389.035 96.7473 390.413 97.1675C391.791 97.5877 393.07 98.2828 394.176 99.2114" stroke="black" stroke-linecap="round" stroke-linejoin="round"/>
<path d="M383.274 99.2404C383.274 99.2404 387.899 98.2966 391.644 99.4631C394.439 100.333 394.802 101.056 394.802 101.056" stroke="black" stroke-linecap="round" stroke-linejoin="round"/>
<path d="M382.553 102.168C382.553 102.168 386.194 100.633 389.173 101.17C392.152 101.707 393.039 102.082 393.736 102.787C394.434 103.492 393.86 105.408 393.86 105.408" stroke="black" stroke-linecap="round" stroke-linejoin="round"/>
<path d="M379.145 101.136C379.145 101.136 384.045 94.6075 371.731 91.3789" stroke="black" stroke-linecap="round" stroke-linejoin="round"/>
<path d="M377.964 102.953C377.964 102.953 380.572 94.8773 372.185 91.5233C364.749 88.5493 361.471 89.3138 359.237 90.0508C357.004 90.7878 356.24 92.0673 357.205 92.5272C358.171 92.9871 361.125 90.7377 363.474 90.9676C365.823 91.1976 370.067 92.1427 372.531 93.6515C373.455 94.2034 374.262 94.9344 374.904 95.8022C375.546 96.6701 376.01 97.6575 376.27 98.7072" stroke="black" stroke-linecap="round" stroke-linejoin="round"/>
<path d="M359.05 96.8184C359.05 96.8184 359.497 101.35 365.6 103.518C371.702 105.686 373.792 105.621 375.269 105.476C376.746 105.331 377.15 104.129 376.091 103.965" stroke="black" stroke-linecap="round" stroke-linejoin="round"/>
<path d="M361.276 108.139C361.276 108.139 368.734 108.846 372.675 105.582" stroke="black" stroke-linecap="round" stroke-linejoin="round"/>
<path d="M352.176 102.857C352.176 102.857 349.078 101.773 347.385 102.861" stroke="black" stroke-linecap="round" stroke-linejoin="round"/>
<path d="M352.371 100.729C352.074 100.58 351.75 100.494 351.419 100.477C351.088 100.459 350.757 100.51 350.447 100.626" stroke="black" stroke-linecap="round" stroke-linejoin="round"/>
<path d="M382.885 109.054C382.885 109.054 379.484 108.338 377.913 106.644C377.913 106.644 381.199 111.706 381.271 112.929" stroke="black" stroke-linecap="round" stroke-linejoin="round"/>
<path d="M385.702 109.776C386.962 110.157 388.304 110.17 389.571 109.815" stroke="black" stroke-linecap="round" stroke-linejoin="round"/>
<path d="M384.492 110.74C384.492 110.74 387.15 111.181 388.75 109.977" stroke="black" stroke-linecap="round" stroke-linejoin="round"/>
<path d="M378.699 85.6571C378.699 85.6571 380.147 83.5674 380.082 81.7104" stroke="black" stroke-linecap="round" stroke-linejoin="round"/>
<path fill-rule="evenodd" clip-rule="evenodd" d="M388.693 114.426C388.693 114.426 385.609 120.54 379.628 118.815C373.648 117.089 361.226 111.924 357.407 109.614C353.588 107.305 349.964 103.428 348.343 104.392C345.735 105.942 347.507 108.226 352.126 112.832C353.985 114.687 356.665 117.589 360.304 119.372C377.532 127.827 382.654 123.491 383.389 122.782C385.299 120.948 384.521 119.852 384.521 119.852C384.521 119.852 387.042 118.861 388.166 117.547C388.495 117.107 388.714 116.594 388.805 116.051C388.897 115.508 388.858 114.951 388.693 114.426Z" fill="#D3743D" stroke="black" stroke-linecap="round" stroke-linejoin="round"/>
<path d="M349.128 106.242C349.128 106.242 351.672 110.918 359.662 114.284C367.653 117.649 377.82 121.548 379.916 121.347C381.731 121.147 383.48 120.548 385.039 119.592" stroke="black" stroke-linecap="round" stroke-linejoin="round"/>
<path fill-rule="evenodd" clip-rule="evenodd" d="M378.389 104.351C378.389 104.351 381.624 101.187 385.234 101.539C389.925 101.995 393.253 106.091 393.253 106.091C393.253 106.091 390.573 108.74 387.208 107.723C384.211 106.757 381.267 105.632 378.389 104.351Z" fill="white" stroke="black" stroke-linecap="round" stroke-linejoin="round"/>
<path fill-rule="evenodd" clip-rule="evenodd" d="M387.583 107.812C387.453 107.783 387.338 107.761 387.208 107.723C384.866 107.015 382.258 105.987 380.493 105.251C380.559 104.663 380.753 104.096 381.062 103.592C381.532 102.832 382.18 102.199 382.95 101.75C383.693 101.544 384.466 101.472 385.234 101.539C386.773 101.713 388.256 102.222 389.579 103.032C389.76 103.548 389.819 104.099 389.751 104.641C389.684 105.184 389.492 105.703 389.19 106.157C388.778 106.818 388.23 107.382 387.583 107.812Z" fill="black" stroke="black" stroke-linecap="round" stroke-linejoin="round"/>
<path fill-rule="evenodd" clip-rule="evenodd" d="M388.116 104.342C388.221 104.37 388.317 104.423 388.397 104.497C388.476 104.571 388.537 104.664 388.573 104.766C388.609 104.869 388.62 104.979 388.604 105.087C388.589 105.195 388.547 105.297 388.483 105.385C388.348 105.599 388.149 105.764 387.914 105.856C387.68 105.949 387.423 105.964 387.179 105.9C387.074 105.873 386.978 105.82 386.898 105.746C386.819 105.672 386.758 105.58 386.722 105.477C386.686 105.374 386.675 105.264 386.691 105.156C386.706 105.049 386.748 104.946 386.812 104.858C386.947 104.645 387.147 104.48 387.381 104.387C387.615 104.295 387.872 104.279 388.116 104.342ZM384.095 101.928C384.173 101.948 384.244 101.987 384.303 102.041C384.362 102.096 384.407 102.164 384.434 102.24C384.461 102.315 384.469 102.397 384.458 102.477C384.447 102.556 384.416 102.632 384.369 102.697C384.269 102.855 384.121 102.977 383.948 103.046C383.774 103.114 383.584 103.126 383.404 103.078C383.326 103.057 383.255 103.018 383.197 102.963C383.138 102.909 383.094 102.84 383.067 102.764C383.041 102.688 383.034 102.607 383.046 102.527C383.058 102.448 383.089 102.372 383.137 102.308C383.236 102.15 383.382 102.028 383.554 101.96C383.727 101.892 383.916 101.88 384.095 101.928Z" fill="white"/>
<path fill-rule="evenodd" clip-rule="evenodd" d="M358.848 93.5483C358.848 93.5483 371.623 95.797 375.427 97.8519C377.654 99.0524 375.86 103.888 375.86 103.888C374.809 103.597 373.719 103.481 372.632 103.544C371.104 103.695 366.659 101.821 364.54 99.5587C362.811 97.7126 361.19 95.0716 358.848 93.5483Z" fill="white" stroke="black" stroke-linecap="round" stroke-linejoin="round"/>
<path fill-rule="evenodd" clip-rule="evenodd" d="M370.658 99.7641C370.015 100.788 369.066 101.58 367.948 102.027C366.692 101.388 365.542 100.556 364.54 99.561C363.877 98.848 363.222 98.0182 362.544 97.1789C363.221 96.1111 364.229 95.2983 365.412 94.8672C367.192 95.2611 369.101 95.718 370.83 96.2033C371.131 96.7551 371.274 97.3798 371.243 98.0083C371.213 98.6367 371.01 99.2444 370.658 99.7641Z" fill="black" stroke="black" stroke-linecap="round" stroke-linejoin="round"/>
<path fill-rule="evenodd" clip-rule="evenodd" d="M369.584 97.9492C369.689 97.9771 369.785 98.0302 369.865 98.1041C369.945 98.178 370.005 98.2703 370.041 98.3731C370.078 98.4758 370.088 98.5859 370.073 98.6938C370.057 98.8017 370.015 98.9042 369.952 98.9922C369.816 99.2056 369.617 99.3704 369.383 99.4629C369.148 99.5554 368.891 99.5709 368.647 99.5072C368.543 99.4795 368.446 99.4264 368.367 99.3526C368.287 99.2788 368.226 99.1865 368.19 99.0838C368.154 98.9811 368.143 98.871 368.159 98.7631C368.175 98.6553 368.216 98.5529 368.28 98.4649C368.416 98.2515 368.615 98.0867 368.849 97.994C369.083 97.9014 369.34 97.8857 369.584 97.9492ZM365.564 95.5337C365.642 95.5534 365.714 95.5922 365.773 95.6466C365.833 95.701 365.878 95.7694 365.905 95.8456C365.932 95.9219 365.94 96.0036 365.928 96.0837C365.917 96.1638 365.885 96.2397 365.837 96.3048C365.736 96.4621 365.589 96.5835 365.416 96.6519C365.242 96.7202 365.052 96.732 364.872 96.6856C364.795 96.6645 364.724 96.625 364.665 96.5704C364.607 96.5158 364.562 96.4477 364.535 96.372C364.508 96.2963 364.5 96.2151 364.511 96.1355C364.522 96.0558 364.552 95.98 364.598 95.9145C364.699 95.7572 364.847 95.6358 365.02 95.5674C365.193 95.4991 365.383 95.4873 365.564 95.5337Z" fill="white"/>
<path fill-rule="evenodd" clip-rule="evenodd" d="M377.454 126.99C377.454 126.99 370.501 127.163 369.564 126.25C368.627 125.337 369.888 123.234 369.031 121.87C368.433 120.916 366.098 121.787 366.098 121.787C366.098 121.787 365.731 125.751 365.227 126.99C364.326 129.212 363.295 130.508 364.124 132.471C364.953 134.434 373.383 135.379 373.383 135.379L377.454 126.99Z" fill="#77AD34" stroke="black"/>
<path fill-rule="evenodd" clip-rule="evenodd" d="M368.779 121.537C368.779 121.537 376.33 121.192 378.217 121.481C380.105 121.771 380.372 125.868 380.372 125.868C380.372 125.868 382.613 131.975 380.372 135.188C378.131 138.402 374.946 136.282 371.488 135.188C370.635 134.954 369.843 134.535 369.168 133.96C369.168 133.96 368.087 131.326 369.852 130.721C369.852 130.721 368.173 128.924 370.212 127.717C371.344 127.051 376.25 126.251 376.25 126.251L375.155 124.471C375.155 124.471 369.816 124.776 368.915 124.02C368.015 123.264 368.779 121.537 368.779 121.537Z" fill="#77AD34" stroke="black" stroke-linecap="round" stroke-linejoin="round"/>
<path fill-rule="evenodd" clip-rule="evenodd" d="M377.144 124.174C376.232 124.429 375.285 124.529 374.341 124.47L377.144 124.174Z" fill="#528A0F"/>
<path d="M377.144 124.174C376.232 124.429 375.285 124.529 374.341 124.47" stroke="black" stroke-linecap="round" stroke-linejoin="round"/>
<path fill-rule="evenodd" clip-rule="evenodd" d="M377.973 125.952L373.592 126.763L377.973 125.952Z" fill="#528A0F"/>
<path d="M377.973 125.952L373.592 126.763" stroke="black" stroke-linecap="round" stroke-linejoin="round"/>
<path fill-rule="evenodd" clip-rule="evenodd" d="M375.458 129.374L369.78 130.7L375.458 129.374Z" fill="#528A0F"/>
<path d="M375.458 129.374L369.78 130.7" stroke="black" stroke-linecap="round" stroke-linejoin="round"/>
<path fill-rule="evenodd" clip-rule="evenodd" d="M374.413 132.919L370.032 133.73L374.413 132.919Z" fill="#528A0F"/>
<path d="M374.413 132.919L370.032 133.73" stroke="black" stroke-linecap="round" stroke-linejoin="round"/>
</g>
<g clip-path="url(#clip3_59_174)">
<path fill-rule="evenodd" clip-rule="evenodd" d="M710.081 86.0074C727.342 86.1724 748.581 73.6218 757.538 57.9738C761.661 50.7685 762.445 44.1669 760.42 39.1204C760.022 37.9253 759.279 36.7804 758.504 35.7972L754.301 28.6035L750.773 30.6133C748.098 29.7632 745.306 29.3342 742.498 29.3417C725.244 29.1767 703.998 41.7272 695.048 57.3746C693.824 59.4779 692.841 61.7112 692.115 64.0327L686.599 67.1772L692.74 77.6825L692.82 77.6377C695.578 82.7362 701.537 85.9263 710.081 86.0074Z" fill="#FF7725" stroke="black" stroke-linecap="round" stroke-linejoin="round"/>
<path fill-rule="evenodd" clip-rule="evenodd" d="M689.248 47.4576C698.198 31.8103 719.444 19.259 736.698 19.424C753.952 19.589 760.688 32.408 751.738 48.0561C742.788 63.7041 721.542 76.2547 704.281 76.0889C687.02 75.9232 680.298 63.1056 689.248 47.4576Z" fill="#EA2814" stroke="black" stroke-linecap="round" stroke-linejoin="round"/>
<path fill-rule="evenodd" clip-rule="evenodd" d="M695.745 47.444C702.851 35.0685 719.698 25.1277 733.374 25.2362C747.049 25.3448 752.355 35.463 745.249 47.8362C738.143 60.2095 721.288 70.1525 707.62 70.0447C693.952 69.9368 688.631 59.8172 695.745 47.444Z" stroke="black" stroke-linecap="round" stroke-linejoin="round"/>
<path fill-rule="evenodd" clip-rule="evenodd" d="M709.217 45.233C709.217 45.233 711.206 34.6668 713.746 33.5168C717.071 32.0108 719.691 38.4496 719.691 38.4496C719.691 38.4496 726.841 36.3444 730.224 38.4373C730.224 38.4373 739.195 32.6853 741.192 33.3113C742.164 33.6174 739.856 39.879 736.023 45.4385C736.023 45.4385 735.515 50.1375 734.216 52.8384C733.105 55.1478 720.991 63.5261 713.333 63.5261C704.484 63.5261 701.719 56.2891 703.178 53.2495C704.332 50.8504 709.217 45.233 709.217 45.233Z" fill="#ECA027" stroke="black" stroke-linecap="round" stroke-linejoin="round"/>
<path fill-rule="evenodd" clip-rule="evenodd" d="M713.231 62.8401C705.108 62.8401 702.706 56.3267 703.795 53.4319C705.914 52.6814 707.729 53.2176 709.326 54.2112C709.928 54.5788 710.418 55.1046 710.741 55.731C712.745 53.1257 716.127 51.2129 719.052 51.2129C721.999 51.2129 723.545 53.1568 723.001 55.7954C723.93 55.1524 724.931 54.6197 725.984 54.2083C728.83 53.0996 731.153 52.7465 732.467 53.7938C729.251 56.892 719.648 62.8401 713.231 62.8401Z" fill="white"/>
<path fill-rule="evenodd" clip-rule="evenodd" d="M711.271 43.7901C711.271 43.7901 712.512 36.6022 714.146 36.0037C715.779 35.4052 717.572 39.6584 717.572 39.6584C715.301 40.7577 713.183 42.1465 711.271 43.7901ZM731.973 39.353C731.973 39.353 738.455 35.0411 739.029 35.5535C739.602 36.0659 734.833 44.6469 734.833 44.6469C734.833 44.6469 733.889 40.6159 731.973 39.353Z" fill="#E98011"/>
<path fill-rule="evenodd" clip-rule="evenodd" d="M717.448 52.2235H719.64C719.792 52.2059 719.945 52.2328 720.081 52.3009C720.217 52.3689 720.33 52.4751 720.407 52.6065C720.483 52.7378 720.519 52.8885 720.511 53.0401C720.502 53.1917 720.45 53.3375 720.359 53.4596L720.069 54.0653C719.76 54.65 719.307 55.1462 718.751 55.5068C718.196 55.8675 717.558 56.0805 716.897 56.1257H716.447C715.242 56.1257 714.705 55.203 715.249 54.0653L715.539 53.4596C715.726 53.1086 715.999 52.8108 716.333 52.5945C716.667 52.3782 717.051 52.2505 717.448 52.2235Z" fill="black" stroke="black" stroke-linecap="round" stroke-linejoin="round"/>
<path fill-rule="evenodd" clip-rule="evenodd" d="M716.2 57.1879L717.093 55.333L716.2 57.1879Z" fill="black"/>
<path d="M716.2 57.1879L717.093 55.333" stroke="black" stroke-linecap="round" stroke-linejoin="round"/>
<path d="M712.861 58.2175L712.759 56.9814L713.151 57.5995H718.849L719.837 56.9814L718.9 58.2175" stroke="black" stroke-linecap="round" stroke-linejoin="round"/>
<path d="M714.632 58.6304H716.599" stroke="black" stroke-linecap="round" stroke-linejoin="round"/>
<path d="M715.525 59.0422L715.626 58.8359" stroke="black" stroke-linecap="round" stroke-linejoin="round"/>
<path fill-rule="evenodd" clip-rule="evenodd" d="M722.537 51.1932C722.95 50.5251 723.58 50.0177 724.322 49.7545C725.135 49.4577 729.316 47.4031 729.367 47.9047C729.379 48.2613 729.305 48.6156 729.151 48.9376C728.997 49.2596 728.767 49.5398 728.481 49.7545C727.249 50.459 725.903 50.9457 724.504 51.1932C723.466 51.3329 722.42 51.4935 722.537 51.1932ZM715.517 51.2337C715.643 50.9901 715.672 50.7081 715.598 50.4442C715.524 50.1803 715.353 49.954 715.118 49.8109C714.603 49.5171 712.418 47.4849 711.888 47.9814C711.358 48.4778 710.828 49.284 711.01 49.8109C711.191 50.3378 712.679 51.0955 713.572 51.2337C714.465 51.3719 715.343 51.5304 715.517 51.2337Z" fill="black"/>
<path fill-rule="evenodd" clip-rule="evenodd" d="M727.451 46.8771C726.115 46.83 725.789 46.6969 726.101 46.0549C726.413 45.413 727.785 44.1523 729.077 44.4107C730.369 44.669 730.514 46.9842 727.451 46.8771ZM715.518 44.4107C713.579 44.876 712.498 46.8083 713.674 46.8771C714.85 46.9458 716.004 46.9878 716.592 46.2605C717.18 45.5332 716.926 44.0713 715.518 44.4107Z" fill="white"/>
</g>
<g clip-path="url(#clip4_59_174)">
<path fill-rule="evenodd" clip-rule="evenodd" d="M689.183 187.238C689.183 187.238 730.326 182.124 739.996 176.135C749.667 170.146 761.684 181.591 756.571 193.895C751.459 206.199 683.658 212.763 683.658 212.763L689.183 187.238Z" fill="#00BFBF" stroke="black" stroke-linecap="round" stroke-linejoin="round"/>
<path fill-rule="evenodd" clip-rule="evenodd" d="M630.961 186.258C630.961 186.258 671.314 185.697 679.477 184.163C687.64 182.628 727.147 171.56 727.147 171.56L733.106 208.316C733.106 208.316 693.713 222.688 682.883 224.073C672.053 225.458 629.261 227.22 629.261 227.22L630.961 186.258Z" fill="#233842" stroke="black" stroke-linecap="round" stroke-linejoin="round"/>
<path fill-rule="evenodd" clip-rule="evenodd" d="M670.119 191.515L682.883 184.163L670.119 191.515Z" fill="#233842"/>
<path d="M670.119 191.515L682.883 184.163" stroke="black" stroke-linecap="round" stroke-linejoin="round"/>
<path fill-rule="evenodd" clip-rule="evenodd" d="M664.217 225.501C648.318 226.432 629.261 227.22 629.261 227.22L630.555 196.048C638.029 206.228 650.501 220.592 664.217 225.501Z" fill="black" stroke="black" stroke-linecap="round" stroke-linejoin="round"/>
<path fill-rule="evenodd" clip-rule="evenodd" d="M478.834 183.651C478.834 183.651 437.691 177.321 428.021 169.919C418.35 162.516 406.34 176.668 411.453 191.884C416.565 207.101 484.359 215.228 484.359 215.228L478.834 183.651Z" fill="#00BFBF" stroke="black" stroke-linecap="round" stroke-linejoin="round"/>
<path fill-rule="evenodd" clip-rule="evenodd" d="M536.217 185.789C536.217 185.789 495.878 185.228 487.722 183.694C479.566 182.159 440.073 171.098 440.073 171.098L434.115 207.84C434.115 207.84 473.494 222.197 484.316 223.583C495.139 224.968 537.917 226.73 537.917 226.73L536.217 185.789Z" fill="#233842" stroke="black" stroke-linecap="round" stroke-linejoin="round"/>
<path fill-rule="evenodd" clip-rule="evenodd" d="M497.08 191.039L484.316 183.694L497.08 191.039Z" fill="#233842"/>
<path d="M497.08 191.039L484.316 183.694" stroke="black" stroke-linecap="round" stroke-linejoin="round"/>
<path fill-rule="evenodd" clip-rule="evenodd" d="M536.623 195.579L537.917 226.73C537.917 226.73 518.867 225.948 502.975 225.011C516.684 220.109 529.149 205.752 536.623 195.579Z" fill="black" stroke="black" stroke-linecap="round" stroke-linejoin="round"/>
<path fill-rule="evenodd" clip-rule="evenodd" d="M584.997 54.0268C608.981 54.1404 618.04 80.1582 625.812 133.805C635.846 203.048 647.962 280.631 647.962 280.631L513.52 281.476C513.52 281.476 521.669 221.327 539.901 136.355C548.825 94.7158 553.93 53.8797 584.997 54.0268Z" fill="#00BFBF" stroke="black" stroke-linecap="round" stroke-linejoin="round"/>
<path fill-rule="evenodd" clip-rule="evenodd" d="M625.812 133.802C635.846 203.045 647.962 280.628 647.962 280.628L639.934 280.678C635.042 246.842 616.789 121.171 611.371 90.5175C608.74 75.599 603.058 64.6894 597.355 57.0391C612.437 65.2797 619.548 90.5601 625.812 133.802Z" fill="#007D87"/>
<path fill-rule="evenodd" clip-rule="evenodd" d="M534.788 204.246L582.444 212.728L624.134 204.246L600.313 263.649L547.552 265.347L534.788 204.246Z" fill="white" stroke="black" stroke-linecap="round" stroke-linejoin="round"/>
<path fill-rule="evenodd" clip-rule="evenodd" d="M576.493 224.62H586.696V282.319H576.493V224.62Z" fill="#253B45" stroke="black" stroke-linecap="round" stroke-linejoin="round"/>
<path fill-rule="evenodd" clip-rule="evenodd" d="M578.292 213.587H584.919C586.522 213.587 588.059 214.224 589.193 215.356C590.326 216.488 590.963 218.024 590.963 219.626V221.977C590.962 223.578 590.325 225.114 589.191 226.246C588.058 227.378 586.521 228.015 584.919 228.016H578.292C576.689 228.015 575.152 227.378 574.019 226.246C572.886 225.114 572.249 223.578 572.248 221.977V219.626C572.248 218.024 572.884 216.488 574.018 215.356C575.151 214.224 576.689 213.587 578.292 213.587Z" fill="#253B45" stroke="black" stroke-linecap="round" stroke-linejoin="round"/>
<path fill-rule="evenodd" clip-rule="evenodd" d="M530.422 182.685C538.472 193.078 556.12 210.852 582.444 210.184C609.387 209.502 625.457 188.794 632.241 177.492C632.404 178.557 632.561 179.616 632.717 180.674C629.991 188.002 626.546 195.043 622.435 201.695C614.137 214.98 597.761 227.156 597.761 227.156L582.444 213.58L567.128 228.854C567.128 228.854 540.271 209.424 529.484 187.558C529.789 185.946 530.102 184.321 530.422 182.685Z" fill="white" stroke="black" stroke-linecap="round" stroke-linejoin="round"/>
<path fill-rule="evenodd" clip-rule="evenodd" d="M632.973 182.387C638.064 216.451 642.857 247.63 645.595 265.348H515.902C518.455 248.788 523.127 220.351 530.124 184.22C542.29 203.649 564.483 236.782 581.591 249.221C581.591 249.221 621.432 215.662 632.973 182.387Z" fill="#253B45" stroke="black" stroke-linecap="round" stroke-linejoin="round"/>
<path fill-rule="evenodd" clip-rule="evenodd" d="M643.497 280.657L513.52 281.474C513.52 281.474 517.694 250.656 526.753 201.979L533.942 223.76L546.706 216.124L544.153 238.189L582.444 266.2L620.735 233.948L615.63 224.613L629.24 223.76C631.866 216.954 634.144 210.019 636.066 202.981C640.176 230.232 643.824 253.903 645.964 267.727L643.497 280.657Z" fill="#253B45" stroke="black" stroke-linecap="round" stroke-linejoin="round"/>
<path d="M578.185 255.167L587.55 244.135" stroke="black" stroke-linecap="round" stroke-linejoin="round"/>
<path fill-rule="evenodd" clip-rule="evenodd" d="M575.917 115.893C575.917 115.893 563.594 108.242 552.963 118.01C552.963 118.01 566.395 116.98 572.852 121.512C572.852 121.512 577.517 118.386 575.917 115.893Z" fill="black" stroke="black" stroke-linecap="round" stroke-linejoin="round"/>
<path fill-rule="evenodd" clip-rule="evenodd" d="M588.495 116.142C588.495 116.142 600.783 108.611 611.413 118.287C611.413 118.287 598.003 117.235 591.56 121.704C591.56 121.704 586.903 118.6 588.495 116.142Z" fill="black" stroke="black" stroke-linecap="round" stroke-linejoin="round"/>
<path d="M599.46 171.994C599.46 171.994 592.307 186.87 567.128 181.328" stroke="black" stroke-linecap="round" stroke-linejoin="round"/>
<path d="M596.907 170.295C596.907 170.295 602.02 170.43 602.866 174.536" stroke="black" stroke-linecap="round" stroke-linejoin="round"/>
<path fill-rule="evenodd" clip-rule="evenodd" d="M629.183 142.469C628.934 142.427 626.837 141.567 626.837 141.567L625.734 137.916L623.366 137.099C624.298 144.402 624.205 153.864 622.975 155.882C620.991 159.142 590.842 157.388 588.652 156.777C586.462 156.166 585.374 146.27 581.42 146.455C577.467 146.639 578.142 156.23 575.17 156.677C571.231 157.274 556.042 158.041 547.865 157.913C541.707 157.821 542.013 154.326 542.205 150.973C542.361 148.373 542.617 142.959 542.916 138.036L538.785 139.706L537.881 143.379C537.881 143.379 535.834 144.345 535.592 144.409C534.319 144.714 535.442 137.369 535.442 137.369C535.442 137.369 541.721 128.467 544.779 129.874C545.042 129.601 545.36 129.386 545.71 129.242C563.508 125.54 613.426 126.521 619.989 128.148C623.21 128.069 628.934 135.372 628.934 135.372C628.934 135.372 630.463 142.711 629.183 142.469Z" fill="#143E3E" stroke="black" stroke-linecap="round" stroke-linejoin="round"/>
<path fill-rule="evenodd" clip-rule="evenodd" d="M617.351 153.772C616.135 153.793 591.418 154.646 590.7 153.118C588.901 149.282 587.173 141.24 585.829 134.875C585.466 133.135 585.097 130.733 587.55 130.641C591.944 130.478 618.105 130.868 618.816 132.332C619.527 133.795 620.046 151.498 620.046 151.498C620.117 152.983 618.56 153.758 617.351 153.772ZM574.011 153.253C573.03 154.539 549.138 154.567 547.922 154.582C546.706 154.596 545.54 153.821 545.902 151.804C545.902 151.804 546.08 133.767 546.969 132.467C547.773 131.287 572.361 130.534 576.763 130.705C579.664 130.819 579.209 132.708 578.917 134.435C578.107 139.301 575.725 150.994 574.011 153.253Z" fill="black" stroke="black" stroke-linecap="round" stroke-linejoin="round"/>
<path fill-rule="evenodd" clip-rule="evenodd" d="M546.158 141.077L560.266 131.088C564.177 130.904 568.251 130.783 571.458 130.719L545.952 148.77C545.988 146.696 546.052 143.833 546.158 141.077ZM586.305 137.113L595.443 130.648C598.593 130.691 602.248 130.783 605.718 130.918L587.77 143.62C587.251 141.474 586.761 139.244 586.305 137.113ZM576.827 143.819L577.076 143.641C577.047 143.776 577.019 143.911 576.983 144.046L576.827 143.819Z" fill="#CAFEFF" stroke="black" stroke-linecap="round" stroke-linejoin="round"/>
<path fill-rule="evenodd" clip-rule="evenodd" d="M487.154 254.315H684.568V287.484L667.545 320.183V508.806H504.17V321.448L487.154 286.603V254.315Z" fill="#865858" stroke="black" stroke-linecap="round" stroke-linejoin="round"/>
<path fill-rule="evenodd" clip-rule="evenodd" d="M487.552 287.419H684.568V287.483L667.823 319.658H503.295L487.552 287.419Z" fill="#5A3C3C" stroke="black" stroke-linecap="round" stroke-linejoin="round"/>
<path fill-rule="evenodd" clip-rule="evenodd" d="M586.341 385.804L580.368 389.562L586.383 393.292L592.357 389.427L586.341 385.804ZM586.455 371.667L565.848 384.76L565.784 392.255L586.191 404.9L600.832 395.558L600.754 405.582L586.113 414.817L571.721 405.901L571.764 400.73L565.748 397L565.649 409.659L586.056 422.305L606.763 409.212L606.962 384.312L586.256 397.405L571.757 388.496H571.856L586.398 379.155L597.441 385.996L603.513 382.138L586.455 371.667Z" fill="#00BFBF" stroke="black" stroke-linecap="round" stroke-linejoin="round"/>
<path fill-rule="evenodd" clip-rule="evenodd" d="M647.266 106.565L650.202 115.736C650.278 115.969 650.407 116.18 650.58 116.353C650.753 116.526 650.965 116.656 651.198 116.731L660.385 119.658C660.695 119.758 660.965 119.953 661.156 120.216C661.348 120.479 661.451 120.796 661.451 121.121C661.451 121.446 661.348 121.763 661.156 122.026C660.965 122.289 660.695 122.485 660.385 122.585L651.198 125.511C650.964 125.587 650.752 125.717 650.578 125.891C650.405 126.066 650.276 126.279 650.202 126.513L647.266 135.677C647.167 135.988 646.972 136.26 646.709 136.452C646.445 136.645 646.127 136.749 645.801 136.749C645.475 136.749 645.157 136.645 644.893 136.452C644.63 136.26 644.435 135.988 644.336 135.677L641.407 126.513C641.33 126.279 641.2 126.066 641.025 125.892C640.851 125.718 640.638 125.588 640.404 125.511L631.224 122.585C630.913 122.486 630.641 122.291 630.448 122.028C630.255 121.765 630.152 121.447 630.152 121.121C630.152 120.795 630.255 120.477 630.448 120.214C630.641 119.951 630.913 119.756 631.224 119.658L640.404 116.731C640.637 116.655 640.849 116.525 641.023 116.353C641.198 116.18 641.329 115.969 641.407 115.736L644.336 106.565C644.435 106.254 644.63 105.983 644.893 105.79C645.157 105.597 645.475 105.494 645.801 105.494C646.127 105.494 646.445 105.597 646.709 105.79C646.972 105.983 647.167 106.254 647.266 106.565Z" fill="white" stroke="black" stroke-linecap="round" stroke-linejoin="round"/>
<path fill-rule="evenodd" clip-rule="evenodd" d="M476.628 303.444C476.628 303.444 465.755 310.164 456.824 310.044L461.396 319.684C461.396 319.684 473.463 319.591 482.209 311.059L476.628 303.444Z" fill="#E13838" stroke="black" stroke-linecap="round" stroke-linejoin="round"/>
<path fill-rule="evenodd" clip-rule="evenodd" d="M712.834 340.095C712.834 340.095 701.962 346.823 693.031 346.695L697.603 356.342C697.603 356.342 709.67 356.243 718.416 347.711L712.834 340.095Z" fill="#FEBF38" stroke="black" stroke-linecap="round" stroke-linejoin="round"/>
<path fill-rule="evenodd" clip-rule="evenodd" d="M729.195 152.627C729.195 152.627 717.043 148.656 711.376 141.758L706.953 151.469C706.953 151.469 714.817 160.627 726.977 161.806L729.195 152.627Z" fill="#38FE3D" stroke="black" stroke-linecap="round" stroke-linejoin="round"/>
<path fill-rule="evenodd" clip-rule="evenodd" d="M465.378 159.577C465.378 159.577 471.686 148.459 479.578 144.282L470.939 138.017C470.939 138.017 460.401 143.899 456.824 155.585L465.378 159.577Z" fill="#FEBF38" stroke="black" stroke-linecap="round" stroke-linejoin="round"/>
</g>
<defs>
<clipPath id="clip0_59_174">
<rect width="80.689" height="67.5744" fill="white" transform="matrix(0.999825 0.0186979 -0.0187331 0.999825 862.43 159.996)"/>
</clipPath>
<clipPath id="clip1_59_174">
<rect width="86.1797" height="86.0987" fill="white" transform="translate(193.016 0.623535)"/>
</clipPath>
<clipPath id="clip2_59_174">
<rect width="85.1158" height="89.2876" fill="white" transform="translate(327.073 63.3369)"/>
</clipPath>
<clipPath id="clip3_59_174">
<rect width="77.6681" height="68.0286" fill="white" transform="translate(684.559 18.6938)"/>
</clipPath>
<clipPath id="clip4_59_174">
<rect width="426.793" height="492.151" fill="white" transform="translate(370.675 16.6553)"/>
</clipPath>
</defs>
</svg>
