<svg width="2560" height="1281" viewBox="0 0 2560 1281" fill="none" xmlns="http://www.w3.org/2000/svg">
<g clip-path="url(#clip0_256_1692)">
<path fill-rule="evenodd" clip-rule="evenodd" d="M1 1281.67C1 574.206 573.653 2.66663 1280 2.66663C1986.35 2.66663 2559 575.32 2559 1281.67H2561C2561 574.215 1987.45 0.666626 1280 0.666626C572.549 0.666626 -1 573.1 -1 1281.67H1ZM1278.89 52.8407C600.414 52.8407 51.1743 603.193 51.1743 1281.67H49.1743C49.1743 602.091 599.307 50.8407 1278.89 50.8407C1958.46 50.8407 2509.71 602.09 2509.71 1281.67H2507.71C2507.71 603.194 1957.36 52.8407 1278.89 52.8407ZM101.348 1281.67C101.348 631.068 628.289 103.015 1278.89 103.015C1929.48 103.015 2456.42 629.954 2456.42 1280.55H2458.42C2458.42 628.849 1930.59 101.015 1278.89 101.015C627.182 101.015 99.3484 629.966 99.3484 1281.67H101.348ZM1278.88 154.304C656.162 154.304 151.523 658.943 151.523 1281.67H149.523C149.523 657.839 655.057 152.304 1278.88 152.304C1902.71 152.304 2408.25 657.839 2408.25 1281.67H2406.25C2406.25 658.943 1901.61 154.304 1278.88 154.304ZM202.812 1280.55C202.812 685.703 685.151 203.363 1280 203.363C1874.85 203.363 2357.19 685.703 2357.19 1280.55H2359.19C2359.19 684.599 1875.95 201.363 1280 201.363C684.047 201.363 200.812 684.599 200.812 1280.55H202.812ZM1278.88 254.652C711.911 254.652 252.986 713.577 252.986 1280.55H250.986C250.986 712.473 710.806 252.652 1278.88 252.652C1846.96 252.652 2306.78 712.473 2306.78 1280.55H2304.78C2304.78 713.577 1845.86 254.652 1278.88 254.652ZM303.16 1280.55C303.16 741.452 739.786 304.827 1278.88 304.827C1817.98 304.827 2254.61 741.452 2254.61 1280.55H2256.61C2256.61 740.348 1819.09 302.827 1278.88 302.827C738.681 302.827 301.16 740.348 301.16 1280.55H303.16ZM1278.88 355.001C767.66 355.001 353.334 769.327 353.334 1280.55H351.334C351.334 768.222 766.555 353.001 1278.88 353.001C1791.21 353.001 2206.44 768.222 2206.44 1280.55H2204.44C2204.44 769.327 1790.11 355.001 1278.88 355.001ZM404.624 1280.55C404.624 797.202 796.649 406.29 1278.89 406.29C1762.23 406.29 2153.15 798.315 2153.15 1280.55H2155.15C2155.15 797.212 1763.34 404.29 1278.89 404.29C795.546 404.29 402.624 796.095 402.624 1280.55H404.624ZM1278.89 456.464C823.41 456.464 454.798 825.075 454.798 1280.55H452.798C452.798 823.971 822.305 454.464 1278.89 454.464C1735.47 454.464 2104.97 823.971 2104.97 1280.55H2102.97C2102.97 825.075 1734.36 456.464 1278.89 456.464ZM504.972 1280.55C504.972 852.952 851.283 507.754 1277.77 507.754C1705.37 507.754 2051.68 854.067 2051.68 1280.55H2053.68C2053.68 852.961 1706.47 505.754 1277.77 505.754C850.18 505.754 502.972 851.846 502.972 1280.55H504.972ZM1278.88 557.928C1004.21 557.928 764.962 711.247 642.737 937.373C643.519 938.183 644 939.285 644 940.5C644 942.985 641.985 945 639.5 945C639.23 945 638.966 944.976 638.71 944.931C586.063 1045.16 556.261 1159.32 556.261 1280.55H554.261C554.261 1159.05 584.117 1044.62 636.862 944.146C635.734 943.328 635 942 635 940.5C635 938.015 637.015 936 639.5 936C640.047 936 640.571 936.098 641.056 936.276C763.643 709.605 1003.51 555.928 1278.88 555.928C1570.36 555.928 1821.1 727.738 1936.22 975.185C1936.63 975.065 1937.06 975 1937.5 975C1939.99 975 1942 977.015 1942 979.5C1942 981.091 1941.17 982.489 1939.93 983.289C1980.79 1074.03 2003.51 1174.67 2003.51 1280.55H2001.51C2001.51 1174.9 1978.83 1074.49 1938.04 983.968C1937.86 983.989 1937.68 984 1937.5 984C1935.01 984 1933 981.985 1933 979.5C1933 978.181 1933.57 976.994 1934.47 976.171C1819.7 729.33 1569.61 557.928 1278.88 557.928ZM606.435 1280.55C606.435 909.814 907.034 608.103 1278.88 608.103C1650.74 608.103 1951.33 908.7 1951.33 1280.55H1953.33C1953.33 907.596 1651.84 606.103 1278.88 606.103C905.927 606.103 604.435 908.712 604.435 1280.55H606.435ZM1277.77 659.392C934.907 659.392 656.61 937.69 656.61 1280.55H654.61C654.61 936.585 933.803 657.392 1277.77 657.392C1621.74 657.392 1900.93 936.585 1900.93 1280.55H1898.93C1898.93 937.69 1620.63 659.392 1277.77 659.392ZM706.784 1280.55C706.784 965.564 962.782 709.566 1277.77 709.566C1592.76 709.566 1848.76 965.564 1848.76 1280.55H1850.76C1850.76 964.459 1593.86 707.566 1277.77 707.566C961.678 707.566 704.784 964.459 704.784 1280.55H706.784ZM1278.89 759.74C990.659 759.74 758.073 993.438 758.073 1280.55H756.073C756.073 992.336 989.551 757.74 1278.89 757.74C1407.66 757.74 1525.73 804.35 1616.96 881.726C1617.78 880.675 1619.06 880 1620.5 880C1622.99 880 1625 882.015 1625 884.5C1625 885.701 1624.53 886.792 1623.76 887.599C1732.78 983.32 1801.7 1123.73 1801.7 1280.55H1799.7C1799.7 1124.13 1730.87 984.098 1622.02 888.735C1621.55 888.907 1621.04 889 1620.5 889C1618.01 889 1616 886.985 1616 884.5C1616 884.196 1616.03 883.899 1616.09 883.612C1525.15 806.316 1407.37 759.74 1278.89 759.74ZM1002.75 900.008C1080.05 844.032 1175.07 811.029 1277.77 811.029C1537.01 811.029 1747.29 1021.31 1747.29 1280.55H1749.29C1749.29 1020.21 1538.11 809.029 1277.77 809.029C1174.68 809.029 1079.29 842.144 1001.68 898.313C1000.86 897.502 999.74 897 998.5 897C996.015 897 994 899.015 994 901.5C994 902.258 994.187 902.971 994.518 903.598C880.195 989.653 806.248 1126.49 806.248 1280.55H808.248C808.248 1127.1 881.926 990.804 995.824 905.118C996.572 905.672 997.498 906 998.5 906C1000.99 906 1003 903.985 1003 901.5C1003 900.977 1002.91 900.475 1002.75 900.008ZM1277.77 861.203C1224.13 861.203 1172.81 871.309 1125.63 889.719C1125.87 890.265 1126 890.867 1126 891.5C1126 893.985 1123.99 896 1121.5 896C1119.57 896 1117.93 894.786 1117.29 893.081C965.404 956.163 858.422 1106.01 858.422 1280.55H856.422C856.422 1104.99 964.151 954.283 1117.02 891.024C1117.26 888.762 1119.18 887 1121.5 887C1122.6 887 1123.61 887.397 1124.4 888.055C1171.94 869.431 1223.67 859.203 1277.77 859.203C1510.24 859.203 1699.12 1048.08 1699.12 1280.55H1697.12C1697.12 1049.19 1509.13 861.203 1277.77 861.203ZM909.711 1280.55C909.711 1077.06 1074.28 911.377 1278.88 911.377C1335.08 911.377 1388.4 923.929 1436.13 946.409C1436.05 946.758 1436 947.124 1436 947.5C1436 949.985 1438.01 952 1440.5 952C1441.95 952 1443.23 951.317 1444.06 950.257C1564.9 1010.74 1648.06 1135.6 1648.06 1280.55H1650.06C1650.06 1134.8 1566.43 1009.24 1444.9 948.442C1444.97 948.138 1445 947.823 1445 947.5C1445 945.015 1442.99 943 1440.5 943C1439.11 943 1437.86 943.632 1437.04 944.624C1389.03 922.006 1335.41 909.377 1278.88 909.377C1073.17 909.377 907.711 1075.96 907.711 1280.55H909.711ZM1277.77 962.666C1102.16 962.666 959.885 1104.94 959.885 1280.55H957.885C957.885 1103.83 1101.05 960.666 1277.77 960.666C1454.49 960.666 1597.66 1103.83 1597.66 1280.55H1595.66C1595.66 1104.94 1453.38 962.666 1277.77 962.666ZM1010.06 1280.55C1010.06 1132.81 1130.03 1012.84 1277.77 1012.84C1425.51 1012.84 1545.48 1132.81 1545.48 1280.55H1547.48C1547.48 1131.71 1426.62 1010.84 1277.77 1010.84C1128.93 1010.84 1008.06 1131.71 1008.06 1280.55H1010.06ZM1277.77 1063.01C1157.9 1063.01 1060.23 1160.69 1060.23 1280.55H1058.23C1058.23 1159.58 1156.8 1061.01 1277.77 1061.01C1398.74 1061.01 1497.31 1159.58 1497.31 1280.55H1495.31C1495.31 1160.69 1397.64 1063.01 1277.77 1063.01ZM1111.52 1280.55C1111.52 1188.56 1185.78 1114.3 1277.77 1114.3C1369.76 1114.3 1444.02 1188.56 1444.02 1280.55H1446.02C1446.02 1187.46 1370.87 1112.3 1277.77 1112.3C1184.67 1112.3 1109.52 1187.46 1109.52 1280.55H1111.52ZM1277.77 1164.48C1213.65 1164.48 1161.7 1216.43 1161.7 1280.55H1159.7C1159.7 1215.33 1212.55 1162.48 1277.77 1162.48C1342.99 1162.48 1395.84 1215.33 1395.84 1280.55H1393.84C1393.84 1216.43 1341.89 1164.48 1277.77 1164.48ZM1211.87 1280.55C1211.87 1244.31 1241.53 1214.65 1277.77 1214.65C1314.01 1214.65 1343.67 1244.31 1343.67 1280.55H1345.67C1345.67 1243.2 1315.12 1212.65 1277.77 1212.65C1240.42 1212.65 1209.87 1243.2 1209.87 1280.55H1211.87ZM1263.16 1280.55C1263.16 1272.18 1269.4 1265.94 1277.77 1265.94C1286.14 1265.94 1292.38 1272.18 1292.38 1280.55H1294.38C1294.38 1271.08 1287.24 1263.94 1277.77 1263.94C1268.3 1263.94 1261.16 1271.08 1261.16 1280.55H1263.16Z" fill="url(#paint0_linear_256_1692)"/>
</g>
<defs>
<linearGradient id="paint0_linear_256_1692" x1="1280" y1="801" x2="1280" y2="1281.67" gradientUnits="userSpaceOnUse">
<stop stop-color="#D9F2F2" stop-opacity="0.6"/>
<stop offset="1" stop-color="#D9F2F2" stop-opacity="0"/>
</linearGradient>
<clipPath id="clip0_256_1692">
<rect width="2560" height="1280" fill="white" transform="translate(0 0.333252)"/>
</clipPath>
</defs>
</svg>
